<?xml version="1.0" encoding="UTF-8" standalone="no"?>
<!-- Created with Inkscape (http://www.inkscape.org/) -->

<svg
   width="99.999992mm"
   height="99.999939mm"
   viewBox="0 0 99.999992 99.999939"
   version="1.1"
   id="svg1"
   inkscape:export-filename="orange_hand.png"
   inkscape:export-xdpi="1451.4286"
   inkscape:export-ydpi="1451.4286"
   inkscape:version="1.3.2 (091e20e, 2023-11-25)"
   sodipodi:docname="whole_drawing.svg"
   xmlns:inkscape="http://www.inkscape.org/namespaces/inkscape"
   xmlns:sodipodi="http://sodipodi.sourceforge.net/DTD/sodipodi-0.dtd"
   xmlns="http://www.w3.org/2000/svg"
   xmlns:svg="http://www.w3.org/2000/svg">
  <sodipodi:namedview
     id="namedview1"
     pagecolor="#000000"
     bordercolor="#000000"
     borderopacity="0.25"
     inkscape:showpageshadow="2"
     inkscape:pageopacity="0.0"
     inkscape:pagecheckerboard="true"
     inkscape:deskcolor="#d1d1d1"
     inkscape:document-units="mm"
     inkscape:export-bgcolor="#ffffff00"
     inkscape:zoom="1.9984199"
     inkscape:cx="482.1309"
     inkscape:cy="192.6522"
     inkscape:window-width="1376"
     inkscape:window-height="789"
     inkscape:window-x="56"
     inkscape:window-y="47"
     inkscape:window-maximized="0"
     inkscape:current-layer="layer6" />
  <defs
     id="defs1">
    <linearGradient
       id="swatch172"
       inkscape:swatch="solid">
      <stop
         style="stop-color:#fb9f08;stop-opacity:0.98044691;"
         offset="0"
         id="stop172" />
    </linearGradient>
  </defs>
  <path
     id="path505"
     style="display:inline;fill:#000000;fill-opacity:1;fill-rule:evenodd;stroke-width:0.261963"
     d="m 49.752107,5.1645664e-7 -6e-6,0.51420610354336 10e-7,0.4758324 -5e-6,0.99003838 -10e-7,1.4853133 0.495275,-3e-7 V 1.9800772 l 5e-6,-0.99003848 2e-6,-0.4886237 3e-6,-0.50141480354336 z M 48.938586,0.01074552 l -0.495275,0.012791 0.0261,0.99003828 0.494764,-0.013303 z m 2.122826,5e-7 -0.0261,0.98952668 0.494763,0.013303 0.02609,-0.99003828 z m -3.431109,0.045025 -0.494252,0.025582 0.05168,0.98901498 0.494252,-0.026094 z m 4.738881,0 -0.05167,0.98850338 0.494251,0.026094 0.05219,-0.98901498 z m -6.045629,0.078794 -0.493228,0.038885 0.07726,0.98696838 0.493741,-0.038885 z m 7.352377,0 -0.07777,0.98696848 0.49374,0.038885 0.07777,-0.98696848 z m -8.656567,0.1135859 -0.492205,0.051676 0.103348,0.98441028 h 5.13e-4 l 0.103352,0.9849218 0.492205,-0.051676 -0.103867,-0.9849217 5.13e-4,-1e-7 z m 9.960757,0 -0.05219,0.4983449 a 49.504934,49.504938 0 0 0 -5.12e-4,0 l -0.154518,1.47098708 0.492718,0.051676 0.103352,-0.9849219 0.05117,-0.48606518 0.05219,-0.498345 z m -11.261366,0.1473545 -0.490669,0.064467 0.129446,0.98185198 0.490671,-0.064979 z m 12.561974,0 -0.129446,0.98134028 0.491181,0.06498 0.128935,-0.98185198 z m -13.857977,0.1811233 -0.489135,0.07777 0.155029,0.97775888 0.488624,-0.077259 z m 15.154493,0 -0.15503,0.97827038 0.488624,0.077259 0.155029,-0.97775878 z m -16.445892,0.2154037 -0.486577,0.090561 0.1801,0.97315388 0.487089,-0.09005 z m 17.736779,0 -0.180611,0.97366558 0.487088,0.09005 0.180099,-0.97315398 z m -19.022038,0.24917238 -0.484019,0.1028409 0.132518,0.6231869 0.07317,0.3453623 0.206193,0.9685491 0.48402,-0.1028409 -0.205683,-0.9685491 -0.07623,-0.3581535 z m 20.307296,0 -0.104376,0.4901585 -0.01535,0.071119 -0.08647,0.4072715 -0.205682,0.9685491 0.484531,0.1028413 0.205682,-0.9685492 0.101818,-0.4783905 0.103864,-0.4901586 z m -21.585392,0.2824289 -0.480949,0.1156325 0.230754,0.9629209 0.48146,-0.1156324 z m 22.863489,0 -0.231265,0.9629211 0.481461,0.1156323 0.231263,-0.962921 z m -24.133398,0.3161984 -0.478391,0.1279118 0.256336,0.9562696 0.47839,-0.1279119 z m 25.403818,-1e-7 -0.256334,0.9562696 0.477878,0.127912 0.256335,-0.9562696 z m -26.665541,0.3489437 -0.474809,0.1407032 0.281406,0.9491065 0.474808,-0.1407031 z m 27.926753,1e-7 -0.280894,0.9491065 0.474297,0.1407031 0.281407,-0.9491065 z M 34.784365,2.370465 34.313649,2.5234477 34.472771,3.0130945 34.619615,3.4653911 34.92558,4.4068234 35.396295,4.2538402 35.090329,3.3124084 34.943488,2.8601119 Z m 30.430757,-10e-8 -0.155029,0.4768558 -0.150936,0.4650878 -0.305965,0.9414318 0.470715,0.152983 0.305966,-0.9414322 0.150935,-0.4650878 0.155029,-0.4768556 z m -31.672526,0.4149464 -0.466623,0.1652622 0.330525,0.9332454 0.466623,-0.1652622 z m 32.914294,-10e-8 -0.330523,0.9332463 0.466622,0.1652617 0.330525,-0.9332457 z m -34.144296,0.4466685 -0.462529,0.1775418 0.355084,0.9245474 0.462018,-0.1775418 z m 35.374298,1e-7 -0.354572,0.9245478 0.462018,0.1775419 0.355083,-0.9245481 z m -36.59253,0.4794138 -0.457414,0.1893097 0.379131,0.9148269 0.456902,-0.1898222 z m 37.810763,7e-7 -0.378619,0.9143142 0.457413,0.1898211 0.378619,-0.9148263 z m -39.016205,0.5106238 -0.452297,0.2010775 0.254289,0.5704872 0.148889,0.3341061 0.402666,0.9045929 0.451786,-0.201077 -0.402667,-0.9045932 -0.143773,-0.322338 z m 40.221647,4e-7 -0.203635,0.457925 -0.199032,0.4466679 -0.402666,0.9045934 0.452297,0.201077 0.402666,-0.9045927 0.199031,-0.4466679 0.203635,-0.457925 z m -41.412762,0.5418345 -0.44718,0.213357 0.426713,0.8938488 0.446668,-0.213357 z m 42.603878,2e-7 -0.426203,0.8938486 0.44718,0.213358 0.426203,-0.8938492 z m -43.780669,0.5735572 -0.441041,0.2246134 0.449228,0.882081 0.44104,-0.224614 z m 44.95797,4e-7 -0.449738,0.882081 0.44104,0.224613 0.449738,-0.882081 z M 48.396752,5.4454679 c -0.318555,2.19e-5 -0.58298,0.066947 -0.792543,0.2010779 -0.209574,0.134125 -0.377207,0.312526 -0.502949,0.534672 -0.125744,0.222143 -0.215665,0.477755 -0.270151,0.76696 -0.0503,0.285016 -0.07572,0.580713 -0.07572,0.886685 5e-6,0.234719 0.01706,0.477614 0.05065,0.729098 0.03772,0.251485 0.111036,0.482179 0.220008,0.691748 0.10898,0.209571 0.2639,0.381103 0.465087,0.515229 0.201188,0.134126 0.467564,0.20159 0.798683,0.201589 0.280821,-2.4e-5 0.515414,-0.04645 0.704027,-0.138657 0.1928,-0.09641 0.345781,-0.215645 0.458948,-0.358153 0.117356,-0.146699 0.201434,-0.307979 0.251732,-0.484018 0.0503,-0.17604 0.07521,-0.346136 0.07521,-0.509601 -2.8e-5,-0.205379 -0.03127,-0.395984 -0.09415,-0.572023 -0.06287,-0.176039 -0.153305,-0.329015 -0.270661,-0.458948 -0.11317,-0.129935 -0.255385,-0.230619 -0.427226,-0.301871 -0.167663,-0.07545 -0.358261,-0.113075 -0.572023,-0.113075 -0.243107,2.7e-5 -0.459132,0.04594 -0.647745,0.138145 -0.184416,0.09221 -0.339345,0.241291 -0.465088,0.446668 l -0.01279,-0.01279 c 0.004,-0.171846 0.02083,-0.356095 0.05015,-0.553091 0.02931,-0.196996 0.08159,-0.379295 0.157075,-0.546951 0.0796,-0.171849 0.188625,-0.31211 0.326943,-0.421086 0.138317,-0.113168 0.320616,-0.169868 0.546951,-0.169868 0.213763,4.8e-5 0.3858,0.0606 0.515741,0.182147 0.129931,0.121552 0.207651,0.282831 0.2328,0.484019 l 0.534159,-3e-6 C 49.620302,6.2145278 49.494732,5.9340038 49.276782,5.7411978 49.058832,5.5442028 48.765588,5.4454664 48.396749,5.445466 Z m 3.363571,2e-6 c -0.230524,-5.2e-6 -0.429943,0.033731 -0.597604,0.1007969 -0.163465,0.06706 -0.299325,0.156982 -0.408295,0.270149 -0.10898,0.113167 -0.195,0.245125 -0.25787,0.396016 -0.06287,0.150892 -0.111262,0.310223 -0.144797,0.477879 -0.03356,0.167656 -0.05451,0.339703 -0.06294,0.515742 -0.0079,0.176038 -0.01229,0.345624 -0.01228,0.509088 2.2e-5,0.163465 0.004,0.333052 0.01224,0.509091 0.0079,0.176041 0.02937,0.348085 0.06294,0.515741 0.03357,0.167656 0.08197,0.326988 0.144797,0.477879 0.06287,0.146699 0.14889,0.276707 0.257871,0.389876 0.10897,0.113168 0.244829,0.203086 0.408293,0.27015 0.167664,0.06287 0.367083,0.09465 0.597606,0.09465 0.234722,-5e-6 0.433628,-0.03179 0.597092,-0.09465 0.163466,-0.06706 0.299837,-0.156982 0.408807,-0.27015 0.10898,-0.113169 0.194999,-0.243177 0.257871,-0.389876 0.06287,-0.150891 0.11075,-0.310222 0.144284,-0.477879 0.03356,-0.167656 0.05451,-0.339701 0.06294,-0.515741 0.0079,-0.176037 0.01279,-0.345625 0.01279,-0.50909 -2.1e-5,-0.163464 -0.004,-0.33305 -0.01279,-0.509089 -0.0079,-0.176039 -0.02937,-0.348085 -0.06293,-0.515741 -0.03356,-0.167656 -0.08139,-0.326988 -0.144284,-0.477879 -0.06287,-0.150891 -0.148891,-0.28285 -0.257871,-0.396016 -0.108965,-0.113165 -0.247288,-0.203085 -0.414942,-0.270147 -0.163464,-0.067061 -0.360418,-0.1007952 -0.590953,-0.1007953 z m 2e-6,0.4717399 5.12e-4,-1e-6 c 0.150641,1.16e-4 0.278063,0.02942 0.382712,0.088 0.104783,0.05868 0.190811,0.135885 0.257871,0.232288 0.07129,0.0922 0.123541,0.2012 0.157076,0.326943 0.03772,0.125743 0.06503,0.255751 0.08187,0.389875 0.02099,0.129935 0.03122,0.26189 0.03121,0.396015 0.004,0.129934 0.0071,0.249688 0.0072,0.358665 3.2e-5,0.167654 -0.0059,0.356312 -0.01893,0.565881 -0.0079,0.20538 -0.04208,0.400391 -0.100795,0.584814 -0.05445,0.180231 -0.144407,0.333205 -0.270149,0.458948 -0.125743,0.125743 -0.301685,0.188286 -0.528021,0.188286 -0.226338,-1.5e-5 -0.402278,-0.06254 -0.528021,-0.188286 -0.125742,-0.125742 -0.218117,-0.278717 -0.276801,-0.458948 -0.05447,-0.184423 -0.08822,-0.379434 -0.100799,-0.584813 -0.0079,-0.209569 -0.01231,-0.398225 -0.01224,-0.565883 l 1.7e-5,-0.358666 c 0.004,-0.134125 0.01448,-0.266081 0.03121,-0.396015 0.02099,-0.134124 0.0483,-0.264133 0.08186,-0.389875 0.03772,-0.125743 0.09,-0.234734 0.157075,-0.326944 0.0713,-0.0964 0.159229,-0.173609 0.264011,-0.232287 0.104649,-0.0586 0.232583,-0.08793 0.383224,-0.088 z m -25.400748,0.02405 -0.435413,0.235869 0.472762,0.870313 0.434901,-0.236381 z m 47.280849,0 -0.472762,0.869801 0.4349,0.236381 0.472763,-0.870313 z m -48.426429,0.633931 -0.42876,0.247126 0.318756,0.552068 0.176519,0.305454 0.495275,0.857521 0.742399,1.286283 0.428762,-0.247638 -0.742913,-1.286283 -0.494763,-0.857521 -0.18317,-0.31671 z m 49.571497,1e-6 -0.250707,0.433877 -0.244567,0.423132 -1.237677,2.143804 0.428761,0.247637 1.237676,-2.143803 0.244567,-0.423644 0.250708,-0.433878 z m -50.69968,0.663607 -0.42211,0.258381 0.517276,0.844219 0.42211,-0.258382 z m 51.827863,-10e-7 -0.517276,0.844219 0.422109,0.258383 0.517277,-0.844219 z M 48.31489,7.5079248 c 0.15089,1.1e-5 0.282847,0.02685 0.396015,0.08136 0.113168,0.05448 0.207496,0.127797 0.282941,0.220009 0.07544,0.08802 0.129681,0.19506 0.163215,0.320803 0.03772,0.12155 0.05679,0.251559 0.05679,0.389875 3.5e-5,0.129933 -0.02095,0.255533 -0.06293,0.377085 -0.03772,0.117358 -0.09446,0.222452 -0.169868,0.314663 -0.07545,0.0922 -0.169773,0.165521 -0.282941,0.220009 -0.10898,0.0503 -0.236522,0.07521 -0.383224,0.07522 -0.146694,-2.1e-5 -0.278659,-0.02491 -0.396015,-0.07521 -0.113168,-0.05448 -0.209448,-0.12585 -0.289082,-0.213869 -0.07544,-0.08801 -0.134607,-0.192601 -0.176517,-0.314152 -0.04188,-0.121549 -0.06242,-0.251559 -0.06243,-0.389876 4.3e-5,-0.138317 0.01855,-0.268325 0.05628,-0.389875 0.04188,-0.125742 0.103015,-0.232783 0.182659,-0.320803 0.0796,-0.0922 0.175912,-0.163572 0.289081,-0.213869 0.113168,-0.05449 0.245124,-0.08136 0.396015,-0.08136 z m -25.339352,0.423645 -0.415458,0.269638 0.539278,0.830404 0.415457,-0.269639 z m 54.048414,-1e-6 -0.539277,0.830405 0.415459,0.269638 0.539277,-0.830404 z m -55.14027,0.721935 -0.408295,0.280383 0.560766,0.816079 0.408295,-0.280383 z m 56.232638,0 -0.560766,0.816078 0.407783,0.280383 0.560766,-0.816078 z m -57.305562,0.750076 -0.400621,0.291128 0.302895,0.4164812 0.27936,0.384247 0.581744,0.801241 0.40062,-0.291129 -0.581744,-0.800728 -0.279871,-0.3847592 z m 58.377976,0 -0.29471,0.405736 -0.287034,0.3955052 -0.582255,0.800728 0.400621,0.291128 0.581743,-0.801241 0.243545,-0.335129 0.044,-0.06037 0.294708,-0.4052262 z m -59.430435,0.7782162 -0.392947,0.301361 0.602722,0.785379 0.392944,-0.30136 z m 60.483406,0 -0.602722,0.785379 0.392435,0.301361 0.60272,-0.785379 z m -61.515401,0.805334 -0.384758,0.311593 0.623185,0.769007 0.384761,-0.311083 z m 62.547394,-1e-6 -0.623186,0.769518 0.384759,0.311083 0.622675,-0.769007 z m -54.840445,0.408295 -0.414946,2.313671 0.458949,0.02507 c 0.104791,-0.12574 0.224535,-0.226426 0.358665,-0.301872 0.138316,-0.07964 0.295187,-0.119214 0.471227,-0.119214 0.150891,1.1e-5 0.287252,0.02492 0.408806,0.07522 0.125743,0.0503 0.232783,0.121658 0.320803,0.213869 0.08802,0.08802 0.154969,0.195062 0.201078,0.320803 0.0503,0.121551 0.07521,0.255457 0.07522,0.402155 -4.5e-5,0.176041 -0.02492,0.330962 -0.07522,0.465088 -0.0503,0.129933 -0.119707,0.238923 -0.207728,0.326943 -0.08386,0.08802 -0.184004,0.155483 -0.301361,0.201589 -0.113168,0.04191 -0.232922,0.06243 -0.358665,0.06242 -0.134126,4.6e-5 -0.257776,-0.01856 -0.370944,-0.05628 -0.108969,-0.04191 -0.20525,-0.09861 -0.289081,-0.169868 -0.0796,-0.07545 -0.144641,-0.161468 -0.194938,-0.257869 -0.04613,-0.100594 -0.07344,-0.207124 -0.08187,-0.320292 l -0.53416,3e-6 c 0.004,0.201187 0.04376,0.381028 0.119213,0.5403 0.07545,0.159275 0.178082,0.293689 0.308013,0.402667 0.12993,0.104785 0.279014,0.186399 0.446668,0.245079 0.171852,0.05448 0.35414,0.08187 0.546951,0.08187 0.259862,2.9e-5 0.486156,-0.04009 0.678957,-0.119726 0.197,-0.08383 0.360228,-0.194766 0.490159,-0.333083 0.129939,-0.138317 0.226721,-0.2957 0.289592,-0.471739 0.06703,-0.18023 0.100282,-0.364477 0.100282,-0.553091 4.1e-5,-0.255677 -0.03762,-0.477551 -0.11307,-0.666166 -0.07545,-0.192805 -0.178082,-0.352136 -0.308012,-0.477879 -0.12993,-0.129933 -0.282909,-0.226721 -0.458948,-0.289592 -0.176039,-0.06287 -0.362744,-0.09414 -0.559742,-0.09414 -0.150893,-1.1e-5 -0.303861,0.02738 -0.458949,0.08186 -0.150891,0.05029 -0.274539,0.129963 -0.370944,0.23894 l -0.01228,-0.01279 0.238939,-1.282701 1.797929,5e-6 2e-6,-0.471227 z m 3.495577,2e-6 -0.414946,2.313671 0.458948,0.02507 c 0.104782,-0.12574 0.224536,-0.226426 0.358666,-0.301872 0.138316,-0.07964 0.295187,-0.119214 0.471227,-0.119214 0.150891,1.1e-5 0.287252,0.02492 0.408806,0.07522 0.125732,0.0503 0.232784,0.121658 0.320803,0.213869 0.08802,0.08802 0.154979,0.195063 0.201078,0.320803 0.0503,0.121551 0.07521,0.255457 0.07522,0.402155 -4.5e-5,0.176041 -0.02493,0.330962 -0.07521,0.465088 -0.0503,0.129933 -0.119197,0.238923 -0.207216,0.326943 -0.08386,0.08802 -0.184506,0.155483 -0.301873,0.201589 -0.113168,0.04191 -0.232922,0.06243 -0.358665,0.06242 -0.134118,4.5e-5 -0.257776,-0.01856 -0.370944,-0.05628 -0.10898,-0.04191 -0.20526,-0.09861 -0.289081,-0.169867 -0.0796,-0.07545 -0.144641,-0.161468 -0.194938,-0.257869 -0.04613,-0.100595 -0.07344,-0.207124 -0.08187,-0.320292 l -0.53416,3e-6 c 0.004,0.201187 0.04376,0.381028 0.119213,0.5403 0.07545,0.159274 0.178082,0.293689 0.308012,0.402667 0.129941,0.104785 0.279015,0.186398 0.446669,0.245078 0.171841,0.05448 0.35415,0.08187 0.546951,0.08186 0.259872,2.9e-5 0.486145,-0.04009 0.678957,-0.119726 0.19699,-0.08383 0.360738,-0.194766 0.490669,-0.333083 0.129941,-0.138316 0.226211,-0.2957 0.289081,-0.471739 0.06703,-0.18023 0.100283,-0.364477 0.100283,-0.553092 4e-5,-0.255676 -0.03763,-0.477551 -0.113071,-0.666165 -0.07544,-0.192805 -0.178071,-0.352136 -0.308012,-0.477879 -0.12993,-0.129933 -0.282909,-0.226721 -0.458948,-0.289592 -0.176039,-0.06287 -0.362751,-0.09414 -0.559742,-0.09414 -0.150892,-1e-5 -0.30387,0.02738 -0.458948,0.08186 -0.150891,0.05029 -0.274538,0.129963 -0.370944,0.238939 l -0.01228,-0.01279 0.23894,-1.282701 1.797929,-5e-6 2e-6,-0.471227 z m 40.15411,10e-7 -0.414946,2.313671 0.458949,0.02507 c 0.104792,-0.125741 0.224545,-0.226427 0.358664,-0.301872 0.138317,-0.07963 0.295188,-0.119214 0.471227,-0.119214 0.150892,1.1e-5 0.287253,0.02492 0.408807,0.07522 0.125741,0.0503 0.232783,0.121658 0.320804,0.213868 0.08802,0.08802 0.154967,0.195063 0.201077,0.320803 0.0503,0.121552 0.07521,0.255456 0.07522,0.402155 -4.5e-5,0.176041 -0.02493,0.330963 -0.07521,0.465087 -0.0503,0.129935 -0.119197,0.238924 -0.207218,0.326943 -0.08386,0.08802 -0.184514,0.155484 -0.301871,0.20159 -0.113167,0.04191 -0.232922,0.06242 -0.358665,0.06242 -0.134127,4.6e-5 -0.257776,-0.01855 -0.370943,-0.05628 -0.108972,-0.04191 -0.205251,-0.09861 -0.289083,-0.169867 -0.0796,-0.07545 -0.14464,-0.161469 -0.194937,-0.257871 -0.04614,-0.100594 -0.07345,-0.207123 -0.08187,-0.320291 l -0.534161,2e-6 c 0.004,0.201188 0.04376,0.381028 0.119214,0.5403 0.07545,0.159274 0.178071,0.29369 0.308012,0.402666 0.129931,0.104786 0.279015,0.1864 0.446669,0.24508 0.171851,0.05448 0.35415,0.08187 0.546951,0.08186 0.259872,2.9e-5 0.486155,-0.04009 0.678957,-0.119726 0.197,-0.08383 0.360728,-0.194766 0.49067,-0.333082 0.12993,-0.138316 0.22621,-0.2957 0.28908,-0.471739 0.06703,-0.18023 0.100283,-0.364478 0.100283,-0.553091 4.1e-5,-0.255677 -0.03762,-0.477552 -0.11307,-0.666165 -0.07545,-0.192805 -0.178082,-0.352137 -0.308012,-0.477879 -0.129941,-0.129935 -0.282909,-0.226722 -0.458949,-0.289593 -0.17604,-0.06287 -0.362743,-0.09414 -0.559742,-0.09414 -0.150892,-1.1e-5 -0.303861,0.02738 -0.458948,0.08186 -0.150891,0.05029 -0.274549,0.129962 -0.370945,0.238939 l -0.01228,-0.01279 0.23894,-1.282701 1.797929,-4e-6 1e-6,-0.471228 z m -52.36714,0.423644 -0.376572,0.321314 0.64314,0.753146 0.376062,-0.321826 z m 64.568403,0 -0.643141,0.752634 0.376572,0.321826 0.642629,-0.753145 z m -65.556905,0.858033 -0.367876,0.331547 0.417504,0.463554 0.24508,0.272196 0.662583,0.73575 0.367875,-0.331548 -0.662583,-0.73575 -0.236382,-0.262475 z m 66.544896,0 -0.335129,0.37248 -0.326943,0.36327 -0.662583,0.735749 0.367874,0.331548 0.662584,-0.73575 0.326942,-0.363781 0.33513,-0.371968 z m -67.510376,0.883616 -0.359176,0.340757 0.681514,0.718354 0.359176,-0.340758 z m 68.476368,0 -0.681516,0.718353 0.358665,0.340757 0.681515,-0.718353 z m -69.418823,0.908686 -0.349968,0.350479 0.699935,0.699934 0.350479,-0.349967 z m 70.360766,5.11e-4 -0.699935,0.699934 0.349967,0.349968 0.699934,-0.699935 z m -71.278662,0.932734 -0.340758,0.359177 0.718354,0.681515 0.340757,-0.359176 z m 72.196557,0 -0.718354,0.681515 0.34127,0.359176 0.717841,-0.681514 z m -73.089895,0.956782 -0.331035,0.367874 0.473274,0.426203 0.262475,0.236382 0.735749,0.662583 0.331037,-0.367875 -0.735749,-0.662584 -0.271686,-0.244567 z m 73.983233,-10e-7 -0.372481,0.335642 -0.363269,0.326942 -0.73575,0.662584 0.331036,0.367875 0.735749,-0.662584 0.36327,-0.326943 0.37248,-0.33564 z m -74.850987,0.979806 -0.321826,0.376573 0.753145,0.643141 0.321316,-0.376573 z m 75.71874,0 -0.752633,0.643142 0.321314,0.376572 0.753146,-0.643141 z m -76.560912,1.002318 -0.311594,0.384759 0.769519,0.623187 0.311593,-0.384759 z m 77.403085,0 -0.769518,0.623186 0.311594,0.38476 0.769517,-0.623187 z m -78.218652,1.023806 -0.301359,0.392946 0.785891,0.602722 0.30136,-0.392946 z m 79.034218,10e-7 -0.78538,0.602721 0.301361,0.392946 0.785376,-0.602722 z m -79.8226656,1.045296 -0.290617,0.400109 0.41597,0.302383 0.3847606,0.279872 0.801239,0.581743 0.291128,-0.400108 -0.801241,-0.582255 -0.384759,-0.279872 a 49.504934,49.504938 0 0 0 0,5.12e-4 z m 80.6111106,0 -0.405217,0.294198 -0.396019,0.287546 -0.800728,0.582255 0.290615,0.400109 0.801241,-0.581744 0.335128,-0.243545 0.0604,-0.044 0.405213,-0.29471 z m -81.3714196,1.065251 -0.280383,0.407783 0.815567,0.560766 0.280382,-0.407783 z m 82.1322426,-10e-7 -0.81608,0.560767 0.28039,0.407783 0.81608,-0.560766 z m -82.8649226,1.084694 -0.269637,0.414946 0.830404,0.539277 0.269639,-0.414946 z m 83.5970926,0 -0.83041,0.539277 0.26964,0.414946 0.83041,-0.539277 z m -84.3011186,1.103624 -0.258894,0.42211 0.844219,0.517275 0.258893,-0.422109 z m 85.0051386,0 -0.84421,0.517276 0.25889,0.422109 0.84422,-0.517276 z m -85.6800016,1.121532 -0.247638,0.428761 0.540812,0.312104 0.31671,0.182659 2.143803,1.237676 0.247127,-0.428761 -1.285771,-0.7424 -0.857522,-0.495276 -0.305965,-0.176518 z m 86.3548716,0 -0.43388,0.250196 -0.2722,0.157075 -0.15145,0.08749 -0.85751,0.495275 -1.285773,0.742401 0.247128,0.428761 2.143795,-1.237676 0.0322,-0.01893 0.3914,-0.225637 0.43388,-0.250196 z m -87.0000596,1.138927 -0.236381,0.434901 0.870313,0.472251 0.23638,-0.434901 z m 87.6452496,10e-7 -0.86981,0.47225 0.23588,0.434901 0.8703,-0.472251 z M 15.37092,26.946958 c -0.230525,-5e-6 -0.429953,0.03376 -0.597605,0.100797 -0.163464,0.06704 -0.299315,0.156983 -0.408295,0.270151 -0.108969,0.113167 -0.195,0.245124 -0.25787,0.396014 -0.06287,0.150892 -0.111262,0.310216 -0.144797,0.47788 -0.03356,0.167653 -0.05452,0.339702 -0.06294,0.515741 -0.0079,0.176039 -0.01229,0.345624 -0.01229,0.509089 2.2e-5,0.163465 0.004,0.333052 0.01224,0.50909 0.0079,0.176041 0.02937,0.348078 0.06293,0.515741 0.03356,0.167653 0.08188,0.326989 0.144797,0.47788 0.06287,0.146702 0.148901,0.276707 0.257871,0.389875 0.108979,0.113168 0.24483,0.20309 0.408294,0.27015 0.167654,0.06287 0.367081,0.09466 0.597605,0.09466 0.234722,-6e-6 0.433627,-0.03179 0.597093,-0.09465 0.163465,-0.06703 0.299826,-0.156981 0.408806,-0.27015 0.10898,-0.113168 0.194487,-0.243172 0.257358,-0.389875 0.06287,-0.150892 0.111263,-0.310226 0.144797,-0.477879 0.03356,-0.167664 0.05451,-0.339702 0.06294,-0.515742 0.0079,-0.176038 0.01279,-0.345623 0.01278,-0.509089 -2.2e-5,-0.163464 -0.004,-0.33305 -0.01279,-0.509089 -0.0079,-0.17604 -0.02937,-0.348088 -0.06293,-0.515741 -0.03357,-0.167663 -0.08197,-0.326988 -0.144797,-0.47788 -0.06287,-0.150891 -0.148378,-0.282846 -0.257358,-0.396014 -0.108979,-0.113167 -0.247283,-0.203082 -0.414946,-0.270151 -0.163466,-0.06703 -0.360428,-0.100794 -0.590953,-0.100794 z m 68.85959,1e-6 c -0.02931,0.167653 -0.08356,0.305966 -0.163215,0.414946 -0.0796,0.10897 -0.178367,0.194999 -0.295733,0.25787 -0.113168,0.06288 -0.240719,0.106857 -0.383224,0.132006 -0.142514,0.02098 -0.289126,0.03172 -0.440017,0.03173 l -5e-6,0.427225 1.156836,5e-6 -3e-6,3.193706 0.53416,-3e-6 V 26.94697 Z m 3.414226,2e-6 c -0.230525,-5e-6 -0.429952,0.03376 -0.597605,0.100797 -0.163465,0.06704 -0.299316,0.156983 -0.408295,0.27015 -0.108979,0.113168 -0.195,0.245125 -0.25787,0.396015 -0.06287,0.150892 -0.111272,0.310216 -0.144797,0.47788 -0.03356,0.167653 -0.05451,0.339702 -0.06293,0.515741 -0.0079,0.176039 -0.01229,0.345624 -0.01229,0.509089 2.2e-5,0.163465 0.004,0.333561 0.01226,0.509602 0.0079,0.17604 0.02937,0.347566 0.06293,0.515229 0.03356,0.167653 0.08188,0.326988 0.144796,0.477879 0.06287,0.146703 0.148892,0.276707 0.257871,0.389875 0.10898,0.113169 0.24483,0.203091 0.408295,0.270151 0.167653,0.06287 0.367081,0.09465 0.597604,0.09465 0.234723,-6e-6 0.433628,-0.03179 0.597094,-0.09465 0.163464,-0.06703 0.299826,-0.156982 0.408806,-0.27015 0.108969,-0.113168 0.194999,-0.243173 0.25787,-0.389875 0.06287,-0.150891 0.110762,-0.310226 0.144285,-0.47788 0.03356,-0.167662 0.05451,-0.339189 0.06293,-0.515228 0.0079,-0.17604 0.01279,-0.346137 0.01279,-0.509602 -2.2e-5,-0.163464 -0.004,-0.33305 -0.01279,-0.509089 -0.0079,-0.17604 -0.02937,-0.348088 -0.06293,-0.515741 -0.03356,-0.167663 -0.0814,-0.326988 -0.144285,-0.477879 -0.06287,-0.150891 -0.1489,-0.282847 -0.25787,-0.396015 -0.10898,-0.113167 -0.247283,-0.203082 -0.414946,-0.27015 -0.163466,-0.06703 -0.360429,-0.100795 -0.590953,-0.100795 z m -76.763014,0.07572 -0.414945,2.313671 0.458947,0.02507 c 0.104792,-0.125742 0.224025,-0.226427 0.358154,-0.301872 0.138315,-0.07961 0.29571,-0.119726 0.471739,-0.119726 0.150891,1.1e-5 0.287252,0.02543 0.408807,0.07572 0.125741,0.0503 0.232271,0.121652 0.320291,0.213869 0.08802,0.08802 0.15548,0.19455 0.201589,0.320291 0.0503,0.121555 0.07521,0.255975 0.07521,0.402667 -4.6e-5,0.176041 -0.02492,0.33097 -0.07522,0.465088 -0.0503,0.12994 -0.11971,0.238923 -0.207729,0.326943 -0.08386,0.08802 -0.184507,0.154979 -0.301872,0.201078 -0.113167,0.04188 -0.232411,0.06294 -0.358154,0.06293 -0.134126,4.6e-5 -0.257775,-0.01856 -0.370945,-0.05628 -0.108969,-0.04189 -0.205248,-0.09862 -0.28908,-0.169868 -0.0796,-0.07545 -0.14464,-0.161475 -0.194937,-0.25787 -0.04615,-0.100593 -0.07345,-0.207635 -0.08186,-0.320804 l -0.534671,-4e-6 c 0.004,0.201188 0.04425,0.381545 0.119725,0.540812 0.07544,0.159277 0.178072,0.293687 0.308012,0.402667 0.12993,0.104782 0.279016,0.186396 0.446668,0.24508 0.171851,0.05445 0.35415,0.08187 0.546952,0.08186 0.25987,2.9e-5 0.486154,-0.0401 0.678956,-0.119726 0.196999,-0.08386 0.360229,-0.194767 0.490159,-0.333082 0.12993,-0.138317 0.226209,-0.2957 0.289081,-0.471739 0.06703,-0.180238 0.100794,-0.364489 0.100795,-0.553091 3.9e-5,-0.255685 -0.03762,-0.478064 -0.113075,-0.666678 -0.07545,-0.192801 -0.178082,-0.352136 -0.308012,-0.477879 -0.129941,-0.12993 -0.282908,-0.226209 -0.458948,-0.289081 -0.176039,-0.06287 -0.362744,-0.09414 -0.559742,-0.09414 -0.150892,-1.1e-5 -0.303859,0.02731 -0.458948,0.08186 -0.150891,0.05029 -0.27455,0.129959 -0.370945,0.23894 l -0.01279,-0.01279 0.23894,-1.282701 1.798441,2e-6 2e-6,-0.471228 z m -5.3201116,0.0573 -0.224613,0.441041 0.88208,0.449738 0.225125,-0.441552 z m 88.8762716,0 -0.88209,0.449227 0.22462,0.441552 0.88208,-0.449738 z m -79.066963,0.338711 h 5.12e-4 c 0.150641,1.16e-4 0.278053,0.02937 0.382712,0.088 0.104782,0.05871 0.190801,0.135882 0.257871,0.232287 0.07129,0.09218 0.123551,0.2012 0.157076,0.326943 0.03772,0.125743 0.06513,0.255747 0.08187,0.389876 0.02099,0.12993 0.03121,0.261896 0.03121,0.396015 0.004,0.12994 0.0071,0.249685 0.0071,0.358667 3.1e-5,0.167651 -0.0059,0.356308 -0.01894,0.565882 -0.0079,0.205376 -0.04207,0.400388 -0.100795,0.584813 -0.05446,0.180227 -0.144407,0.333205 -0.270149,0.458948 -0.125743,0.125742 -0.301685,0.188286 -0.528021,0.188286 -0.226337,-1.6e-5 -0.40279,-0.06258 -0.528532,-0.188285 -0.125742,-0.125743 -0.217606,-0.278722 -0.27629,-0.458949 -0.05445,-0.184425 -0.08822,-0.379437 -0.100798,-0.584813 -0.0079,-0.209573 -0.01231,-0.398228 -0.01224,-0.565883 l 1.7e-5,-0.358666 c 0.004,-0.134117 0.01448,-0.266085 0.03121,-0.396015 0.02099,-0.134129 0.0483,-0.264133 0.08186,-0.389875 0.03772,-0.125743 0.09,-0.234736 0.157077,-0.326944 0.07128,-0.09643 0.159228,-0.173605 0.26401,-0.232287 0.104649,-0.05863 0.232583,-0.08793 0.383224,-0.088 z m 72.273817,0 h 5.11e-4 c 0.150641,1.16e-4 0.278053,0.02937 0.382713,0.088 0.10478,0.05871 0.1908,0.135882 0.257869,0.232287 0.07129,0.09218 0.123552,0.201201 0.157077,0.326943 0.03772,0.125743 0.06513,0.255747 0.08187,0.389876 0.02099,0.129931 0.03122,0.261896 0.03121,0.396016 0.004,0.129939 0.0071,0.249684 0.0071,0.358666 3.2e-5,0.167651 -0.0059,0.356308 -0.01893,0.565882 -0.0079,0.205376 -0.04208,0.400387 -0.100795,0.584813 -0.05445,0.180227 -0.144408,0.333205 -0.27015,0.458948 -0.125743,0.125742 -0.301683,0.188286 -0.52802,0.188286 -0.226336,-1.6e-5 -0.402278,-0.06257 -0.52802,-0.188286 -0.125743,-0.125743 -0.21812,-0.278721 -0.276802,-0.458948 -0.05447,-0.184426 -0.08822,-0.379438 -0.100798,-0.584813 -0.0079,-0.209573 -0.01231,-0.398228 -0.01225,-0.565883 l 1.8e-5,-0.358666 c 0.004,-0.134117 0.01448,-0.266085 0.03121,-0.396015 0.02099,-0.134129 0.0483,-0.264133 0.08186,-0.389876 0.03772,-0.125742 0.09,-0.234735 0.157076,-0.326943 0.0713,-0.09643 0.159218,-0.173605 0.26401,-0.232288 0.104649,-0.05863 0.232582,-0.08793 0.383225,-0.088 z m -82.6674286,0.832451 -0.213356,0.446668 0.893848,0.426202 0.212847,-0.446668 z m 90.0453846,0 -0.89384,0.426202 0.21335,0.446669 0.89333,-0.426202 z m -90.5994976,1.185999 -0.201589,0.452297 0.582254,0.258893 0.322338,0.143773 0.904594,0.402667 0.201589,-0.452296 -0.904593,-0.402667 -0.334105,-0.148889 z m 91.1530976,0 -0.45741,0.203636 -0.44718,0.199031 -0.90408,0.402667 0.20108,0.452296 0.9046,-0.402667 0.44666,-0.19903 0.45792,-0.203636 z m -91.6754906,1.199814 -0.189821,0.457413 0.914826,0.379131 0.189309,-0.457413 z m 92.1984006,0 -0.91483,0.379131 0.18931,0.457413 0.91483,-0.379131 z m -92.6895816,1.213628 -0.177543,0.462018 0.924547,0.355084 0.177031,-0.46253 z m 93.1802416,10e-7 -0.92403,0.354572 0.17754,0.462528 0.92404,-0.355083 z m -93.6397026,1.225908 -0.165261,0.466622 0.933756,0.330524 0.165264,-0.466622 z m 94.0991626,-10e-7 -0.93324,0.330525 0.16527,0.466623 0.93324,-0.330525 z m -94.5258756,1.237165 -0.152983,0.470716 0.489647,0.159122 0.451785,0.146843 0.941943,0.305965 0.152983,-0.470716 -0.941944,-0.305965 -0.451784,-0.146843 z m 94.9525956,0 -0.47685,0.155029 -0.33104,0.107445 -0.13355,0.04349 -0.94193,0.305966 0.15297,0.470715 0.94195,-0.305965 0.13355,-0.04349 0.33103,-0.107445 0.47686,-0.155028 z m -95.3470756,1.24842 -0.140704,0.474298 0.949618,0.281405 0.140703,-0.474809 z m 95.7415556,0 -0.94962,0.280894 0.1407,0.47481 0.94963,-0.281406 z m -96.1027786,1.258142 -0.128425,0.477878 0.95627,0.256336 0.128424,-0.478391 z m 96.4645186,0 -0.95679,0.255824 0.12843,0.47839 0.95627,-0.256336 z m -96.7929966,1.26684 -0.115633,0.48146 0.96241,0.231264 0.115632,-0.48146 z m 97.1214766,0 -0.96293,0.231264 0.11563,0.481461 0.96242,-0.231265 z m -97.4166976,1.275026 -0.102841,0.48453 0.610395,0.129447 0.357642,0.07624 0.968549,0.205682 0.102842,-0.484019 -0.968038,-0.205682 -0.345363,-0.07368 z m 97.7113976,0 -0.49016,0.104371 -0.47787,0.101822 -0.96855,0.205682 0.10282,0.484531 0.96855,-0.206194 0.47788,-0.101307 0.49067,-0.104375 z m -97.97336163,1.2827 -0.09005,0.486577 0.97366503,0.180612 0.09005,-0.486577 z m 98.23532163,0 -0.97366,0.180612 0.0906,0.486577 0.97315,-0.180612 z m -98.46351663,1.288841 -0.07726,0.489135 0.97775803,0.155029 0.07777,-0.489135 z m 98.69171663,0 -0.97827,0.155029 0.0778,0.489135 0.97776,-0.155029 z m -98.88563093,1.294468 -0.064467,0.491182 0.98133933,0.128936 0.06447,-0.49067 z m 99.07955093,1e-6 -0.98134,0.129446 0.0644,0.490671 0.98185,-0.128936 z m -99.23969673,1.299073 -0.052188,0.492717 0.6344431,0.06651 0.35047803,0.03684 0.984411,0.103353 0.05218,-0.492205 -0.984922,-0.103352 -0.36327003,-0.03838 z m 99.40035673,0 -0.49835,0.0527 -0.35764,0.03735 -0.12893,0.01382 -0.98441,0.103349 0.0517,0.492203 0.98441,-0.103348 0.48657,-0.05117 0.49835,-0.05219 z m -99.52673363,1.303167 -0.038885,0.493229 0.98696803,0.07777 0.03888,-0.493229 z m 99.65259363,0 -0.98697,0.07777 0.0389,0.493229 0.98696,-0.07777 z m -99.74469013,1.305724 -0.026094,0.494253 0.98901553,0.05167 0.02558,-0.494252 z m 99.83679013,10e-7 -0.9885,0.05168 0.0256,0.494251 0.98902,-0.05168 z m -92.8502406,0.600674 -2.030729,2.898484 2e-6,0.51523 1.955005,3e-6 -4e-6,1.043761 0.502949,3e-6 4e-6,-1.043762 0.603745,-2e-6 2e-6,-0.471226 -0.603745,2e-6 5e-6,-2.942486 z m 82.9969226,0 c -0.02931,0.167663 -0.08356,0.305966 -0.163208,0.414947 -0.0796,0.108979 -0.178366,0.194999 -0.295732,0.25787 -0.113157,0.06288 -0.240723,0.106857 -0.383227,0.132005 -0.142506,0.021 -0.289126,0.03121 -0.440017,0.03121 l -10e-7,0.427737 1.156839,5e-6 -10e-6,3.193705 0.534168,-3e-6 v -4.457474 z m -80.9539146,0.07521 -0.414945,2.31367 0.458948,0.02507 c 0.104791,-0.125743 0.224545,-0.225915 0.358664,-0.30136 0.138317,-0.07961 0.295189,-0.119726 0.471228,-0.119726 0.1508906,1.1e-5 0.2872526,0.02543 0.4088056,0.07572 0.125743,0.0503 0.232784,0.12115 0.320803,0.213357 0.08802,0.08802 0.15497,0.195061 0.201078,0.320803 0.0503,0.121555 0.07522,0.255452 0.07522,0.402155 -4.5e-5,0.176041 -0.0249,0.331472 -0.07522,0.4656 -0.0503,0.12993 -0.11971,0.238923 -0.207729,0.326942 -0.08386,0.08802 -0.184517,0.15497 -0.301873,0.201078 -0.113169,0.04188 -0.232411,0.06294 -0.358154,0.06293 -0.1341256,4.5e-5 -0.2577756,-0.01907 -0.3709436,-0.0568 -0.10898,-0.04188 -0.20525,-0.09862 -0.289081,-0.169867 -0.0796,-0.07545 -0.144641,-0.160953 -0.194938,-0.257359 -0.04614,-0.100593 -0.07344,-0.207635 -0.08186,-0.320803 l -0.534159,2e-6 c 0.004,0.201187 0.04377,0.381534 0.119213,0.540811 0.07545,0.159278 0.178072,0.293176 0.308012,0.402155 0.12993,0.104783 0.279016,0.186397 0.446668,0.24508 0.171852,0.05445 0.35415,0.08187 0.546952,0.08186 0.2598716,2.9e-5 0.4861556,-0.0396 0.6789556,-0.119213 0.197,-0.08386 0.360229,-0.195279 0.490159,-0.333595 0.129931,-0.138317 0.226721,-0.295189 0.289593,-0.471227 0.06703,-0.180227 0.100282,-0.364991 0.100282,-0.553603 4e-5,-0.255675 -0.03762,-0.477553 -0.113071,-0.666165 -0.07544,-0.192812 -0.178081,-0.352138 -0.308012,-0.477879 -0.12994,-0.129941 -0.282908,-0.226211 -0.458948,-0.289081 -0.176039,-0.06287 -0.362743,-0.09414 -0.559741,-0.09414 -0.1508916,-10e-6 -0.3038706,0.02679 -0.4589486,0.08135 -0.150891,0.05029 -0.274549,0.129959 -0.370945,0.238939 l -0.01228,-0.01228 0.238939,-1.2827 1.7979286,5e-6 -2e-6,-0.47174 z m 83.3745326,-10e-7 -0.41496,2.313672 0.45896,0.02507 c 0.10478,-0.125742 0.22453,-0.225915 0.35866,-0.301361 0.13832,-0.07961 0.29519,-0.119725 0.47123,-0.119725 0.15089,1.1e-5 0.28725,0.02543 0.4088,0.07572 0.12575,0.0503 0.23279,0.121149 0.32081,0.213357 0.0879,0.08802 0.15498,0.19506 0.20108,0.320804 0.0503,0.121552 0.0752,0.255451 0.0752,0.402155 -3.5e-4,0.176048 -0.025,0.331471 -0.0752,0.465601 -0.0503,0.12993 -0.11971,0.238922 -0.20773,0.326942 -0.0839,0.08802 -0.184,0.154969 -0.30136,0.201077 -0.11317,0.04188 -0.23292,0.06293 -0.35866,0.06293 -0.13413,4.6e-5 -0.25778,-0.01907 -0.37095,-0.05679 -0.10897,-0.04188 -0.20525,-0.09861 -0.28908,-0.169867 -0.0796,-0.07545 -0.14464,-0.160953 -0.19493,-0.257359 -0.0461,-0.100594 -0.0735,-0.207634 -0.0819,-0.320802 l -0.53415,3e-6 c 0.004,0.201179 0.0438,0.381534 0.11921,0.540812 0.0754,0.159275 0.17807,0.293174 0.308,0.402155 0.12994,0.104781 0.27901,0.186396 0.44668,0.245078 0.17184,0.05446 0.35414,0.08187 0.54695,0.08187 0.25986,3e-5 0.48615,-0.0396 0.67896,-0.119213 0.197,-0.08386 0.36023,-0.195279 0.49016,-0.333595 0.12993,-0.138317 0.22671,-0.295189 0.28959,-0.471228 0.067,-0.180226 0.10028,-0.36499 0.10027,-0.553602 2.5e-4,-0.255679 -0.0376,-0.477551 -0.11302,-0.666167 -0.0755,-0.192811 -0.17808,-0.352137 -0.30801,-0.477879 -0.12993,-0.12994 -0.28291,-0.22621 -0.45895,-0.28908 -0.17603,-0.06287 -0.36273,-0.09414 -0.55973,-0.09414 -0.1509,-1e-5 -0.30389,0.0268 -0.45895,0.08135 -0.1509,0.05029 -0.27455,0.12996 -0.37096,0.238939 l -0.0123,-0.01228 0.23894,-1.282701 1.79793,6e-6 3e-5,-0.47174 z m -92.46190643,0.631886 -0.013303,0.494763 0.99003883,0.02609 0.01279,-0.495275 z m 99.95242643,0 -0.98954,0.02558 0.0128,0.495275 0.99003,-0.02609 z m -92.9960646,0.05372 0.01228,-10e-7 1e-6,2.181666 -1.496058,4e-6 z M -1.2917625e-7,49.752621 l -2e-7,0.494763 0.51471769917625,2e-6 0.475321,3e-6 2.47535103,-5e-6 -10e-7,-0.494762 -2.47535103,4e-6 -0.475321,-3e-6 z M 96.534612,49.75262 l -2e-5,0.494764 2.47484,-10e-7 0.48913,-2e-6 0.50142,4e-6 1.8e-5,-0.494764 -0.501418,-4e-6 -0.48914,2e-6 z m -95.5343406,1.282701 -0.99003853,0.02609 0.013303,0.494763 0.98952653,-0.02558 z m 97.9989506,0 -0.0128,0.495275 0.98953,0.02558 0.0133,-0.494763 z m -97.9549496,1.282701 -0.98901453,0.05168 0.026094,0.494252 0.98850353,-0.05167 z m 97.9109496,0 -0.0256,0.494252 0.98851,0.05168 0.026,-0.494251 z m -97.8336906,1.280654 -0.98696823,0.07777 0.038885,0.493228 0.98696823,-0.07777 z m 97.7564206,0 -0.0389,0.493229 0.98697,0.07777 0.0389,-0.493228 z m -96.6609816,1.174743 -0.984411,0.103349 -0.35047903,0.03684 -0.6344432,0.06651 0.052188,0.492717 0.6211402,-0.06549 0.36327003,-0.03837 0.984922,-0.103352 z m 95.5655416,0 -0.0517,0.492206 0.98442,0.103352 0.48657,0.05116 0.49834,0.05219 0.0517,-0.492206 -0.49834,-0.05219 -0.48658,-0.05116 z m -96.4056686,1.378379 -0.98133993,0.128936 0.064467,0.491181 0.98133993,-0.129446 z m 97.2458086,0 -0.0645,0.490671 0.98134,0.129447 0.0649,-0.491182 z m -97.0682666,1.270421 -0.97775803,0.15503 0.07726,0.489135 0.97827003,-0.155029 z m 96.8907166,0 -0.0778,0.489137 0.97826,0.15503 0.0772,-0.489135 z m -96.6794066,1.265817 -0.97366503,0.180612 0.09005,0.486577 0.97366603,-0.180612 z m 96.4686066,0 -0.0906,0.486577 0.97366,0.180612 0.09,-0.48709 z m -95.2565136,1.053483 -0.968548,0.206193 -0.357642,0.07573 -0.610395,0.129958 0.102841,0.48453 0.623187,-0.132517 0.345361,-0.07368 0.968038,-0.205683 z m 94.0439136,0 -0.10285,0.48453 0.96856,0.205682 0.47787,0.101818 0.49016,0.104376 0.10336,-0.48453 -0.49067,-0.104376 -0.47787,-0.101307 z m -94.7356606,1.458707 -0.962409,0.231265 0.115633,0.481461 0.962408,-0.231265 z m 95.4274006,10e-7 -0.11563,0.48146 0.96292,0.231265 0.11512,-0.481461 z m -95.1178546,1.24535 -0.956269,0.256335 0.128424,0.477879 0.95627,-0.255824 z m 94.8083146,0 -0.12842,0.478391 0.95626,0.256335 0.12843,-0.47839 z m -94.4660216,1.236653 -0.949106,0.281406 0.140192,0.474297 0.949617,-0.280894 z m 94.1237316,-10e-7 -0.14071,0.47481 0.94962,0.280894 0.14071,-0.474298 z m -92.8077736,0.921477 -0.941944,0.305966 -0.451784,0.146843 -0.489646,0.159122 0.152982,0.470716 0.489646,-0.159122 0.451785,-0.146843 0.941943,-0.305966 z m 91.4918136,10e-7 -0.15298,0.470716 0.94193,0.305965 0.46458,0.150937 0.47686,0.155029 0.15299,-0.470717 -0.47686,-0.155029 -0.46458,-0.150936 z m -92.0269966,1.522663 -0.933758,0.330525 0.165262,0.466623 0.933247,-0.330525 z m 92.5626966,1e-6 -0.16526,0.466622 0.93323,0.330524 0.16527,-0.466622 z m -92.1247266,1.205953 -0.924547,0.355084 0.177542,0.462017 0.924035,-0.354572 z m 91.6867466,0 -0.17754,0.46253 0.92404,0.354572 0.17754,-0.462019 z m -82.941153,1.193674 -2.031241,2.898484 -5e-6,0.515741 1.955517,-10e-7 -4e-6,1.043762 0.502949,2e-6 4e-6,-1.043761 0.603744,-2e-6 -2e-6,-0.47174 -0.603745,2e-6 5e-6,-2.942486 z m 3.036629,-4e-6 c -0.230523,-5e-6 -0.429952,0.03375 -0.597604,0.100797 -0.163466,0.06704 -0.299315,0.156982 -0.408295,0.27015 -0.108981,0.113168 -0.194999,0.245636 -0.257872,0.396526 -0.06287,0.150891 -0.111271,0.309715 -0.144796,0.477368 -0.03356,0.167653 -0.05451,0.339702 -0.06293,0.515741 -0.0079,0.176039 -0.01229,0.345625 -0.01229,0.509089 2.1e-5,0.163464 0.004,0.333562 0.01226,0.509602 0.0079,0.176041 0.02937,0.347567 0.06293,0.51523 0.03356,0.167653 0.08188,0.326988 0.144797,0.477878 0.06287,0.146693 0.14889,0.276708 0.25787,0.389876 0.10898,0.113168 0.24483,0.203091 0.408294,0.270149 0.167654,0.06287 0.367082,0.09466 0.597606,0.09466 0.234721,-6e-6 0.433628,-0.03179 0.597092,-0.09465 0.163465,-0.06703 0.299826,-0.156981 0.408806,-0.270149 0.10898,-0.113169 0.194488,-0.243183 0.257359,-0.389876 0.06287,-0.15089 0.111262,-0.310226 0.144797,-0.477879 0.03356,-0.167662 0.05451,-0.33919 0.06293,-0.515228 0.0079,-0.17604 0.01279,-0.346138 0.01279,-0.509602 -2e-5,-0.163464 -0.004,-0.33305 -0.01279,-0.50909 -0.0079,-0.17604 -0.02937,-0.348088 -0.06293,-0.51574 -0.03356,-0.167654 -0.08187,-0.326478 -0.144796,-0.477368 -0.06287,-0.15089 -0.14838,-0.283359 -0.25736,-0.396527 -0.108979,-0.113168 -0.247283,-0.203091 -0.414946,-0.27015 -0.163464,-0.06703 -0.360428,-0.100794 -0.590952,-0.100794 z m 68.172448,10e-7 c -0.234722,5e-6 -0.444389,0.04009 -0.628815,0.119725 -0.184415,0.07961 -0.339347,0.190579 -0.465088,0.333082 -0.121544,0.138317 -0.211978,0.303999 -0.270661,0.49681 -0.05871,0.192801 -0.08165,0.402479 -0.06907,0.628815 l 0.534671,4e-6 c -0.004,-0.134128 0.0079,-0.266075 0.03735,-0.396015 0.03356,-0.134117 0.08633,-0.253874 0.157588,-0.358665 0.07129,-0.104782 0.161169,-0.188348 0.270149,-0.251219 0.113167,-0.06703 0.247067,-0.100799 0.402155,-0.100799 0.117356,-3e-6 0.228803,0.01907 0.333594,0.05679 0.104782,0.03772 0.194706,0.09198 0.27015,0.163216 0.0796,0.07129 0.1427,0.157277 0.188798,0.25787 0.04615,0.09644 0.06907,0.205389 0.06908,0.326943 0,0.155079 -0.02542,0.291451 -0.07572,0.408806 -0.04614,0.117366 -0.116962,0.226349 -0.213357,0.326943 -0.09218,0.100596 -0.210011,0.200767 -0.352526,0.301361 -0.142504,0.09644 -0.307685,0.203446 -0.496298,0.320803 -0.155078,0.09218 -0.304164,0.19095 -0.446668,0.295732 -0.142514,0.104792 -0.270057,0.225978 -0.383224,0.364293 -0.113168,0.138317 -0.207496,0.302068 -0.282942,0.490671 -0.07129,0.184425 -0.117706,0.408758 -0.138656,0.672816 h 2.911275 l -2e-6,-0.471738 -2.288599,-3e-6 c 0.02515,-0.138317 0.07743,-0.260023 0.157075,-0.364804 0.08386,-0.10898 0.182565,-0.209665 0.295732,-0.301873 0.117356,-0.09218 0.244908,-0.177725 0.383224,-0.257359 l 0.414947,-0.25173 c 0.138317,-0.08802 0.272737,-0.180395 0.402666,-0.276802 0.129941,-0.09643 0.24528,-0.202925 0.345874,-0.320291 0.100594,-0.121543 0.179745,-0.257915 0.238428,-0.408807 0.06287,-0.150891 0.09465,-0.32488 0.09465,-0.52188 -4e-5,-0.209573 -0.0376,-0.393825 -0.113071,-0.553091 -0.07129,-0.159278 -0.16999,-0.291223 -0.295733,-0.396016 -0.125742,-0.10897 -0.274316,-0.191106 -0.446157,-0.245591 -0.167662,-0.05871 -0.34801,-0.088 -0.540812,-0.088 z m 3.533439,1e-6 c -0.230525,-6e-6 -0.42995,0.03375 -0.597605,0.100796 -0.163464,0.06704 -0.299315,0.156982 -0.408295,0.270151 -0.108978,0.113168 -0.194999,0.245636 -0.257869,0.396527 -0.06287,0.15089 -0.111272,0.309713 -0.144797,0.477367 -0.03356,0.167652 -0.05452,0.339702 -0.06294,0.515741 -0.0079,0.176039 -0.01229,0.345624 -0.01229,0.50909 2.2e-5,0.163463 0.004,0.33356 0.01226,0.509601 0.0079,0.17604 0.02937,0.347567 0.06293,0.515229 0.03356,0.167654 0.08188,0.326989 0.144796,0.477879 0.06287,0.146693 0.148892,0.276708 0.257871,0.389876 0.108981,0.113168 0.244829,0.203091 0.408296,0.27015 0.167652,0.06287 0.367079,0.09466 0.597603,0.09465 0.234723,-5e-6 0.433628,-0.03179 0.597093,-0.09465 0.163466,-0.06704 0.299827,-0.156982 0.408807,-0.27015 0.10897,-0.113168 0.194999,-0.243183 0.25787,-0.389875 0.06287,-0.150891 0.110761,-0.310226 0.144284,-0.477879 0.03356,-0.167663 0.05451,-0.33919 0.06293,-0.51523 0.0079,-0.176039 0.01279,-0.346137 0.01279,-0.5096 -2.2e-5,-0.163466 -0.004,-0.333051 -0.01279,-0.50909 -0.0079,-0.176041 -0.02937,-0.348089 -0.06294,-0.515741 -0.03356,-0.167653 -0.0814,-0.326478 -0.144283,-0.477367 -0.06287,-0.150891 -0.148902,-0.283359 -0.257871,-0.396527 -0.10898,-0.113168 -0.247283,-0.203091 -0.414946,-0.270151 -0.163466,-0.06703 -0.360429,-0.100794 -0.590954,-0.100794 z m -83.0189286,5.11e-4 -0.914826,0.37913 0.189821,0.457414 0.914314,-0.379131 z m 90.7478756,-10e-7 -0.1893,0.457414 0.91482,0.379131 0.1893,-0.457413 z m -79.434834,0.471228 5.11e-4,1e-6 c 0.150642,1.16e-4 0.278054,0.02936 0.382713,0.088 0.104782,0.05871 0.190801,0.136393 0.25787,0.232799 0.07129,0.09218 0.123552,0.201201 0.157076,0.326943 0.03772,0.125743 0.06513,0.255747 0.08187,0.389876 0.02099,0.12993 0.03121,0.261896 0.03121,0.396015 0.004,0.12994 0.0071,0.249174 0.0072,0.358152 3.3e-5,0.167653 -0.0059,0.356309 -0.01892,0.565883 -0.0079,0.205375 -0.04208,0.400389 -0.100794,0.584814 -0.05446,0.180227 -0.144407,0.333205 -0.27015,0.458947 -0.125743,0.125743 -0.301683,0.188287 -0.528021,0.188287 -0.226336,-1.6e-5 -0.40279,-0.06258 -0.528532,-0.188287 -0.125742,-0.125743 -0.217606,-0.27872 -0.276289,-0.458948 -0.05446,-0.184424 -0.08822,-0.379437 -0.100799,-0.584813 -0.0079,-0.209573 -0.01231,-0.398229 -0.01224,-0.565883 l 3.1e-5,-0.358155 c 0.004,-0.134117 0.01448,-0.266084 0.03121,-0.396015 0.02099,-0.134128 0.0483,-0.264133 0.08186,-0.389875 0.03772,-0.125743 0.09,-0.234736 0.157076,-0.326943 0.0713,-0.09643 0.159218,-0.174117 0.26401,-0.2328 0.10465,-0.05863 0.232583,-0.08793 0.383225,-0.088 z m 71.705887,0 5.11e-4,1e-6 c 0.150642,1.16e-4 0.278054,0.02936 0.382714,0.088 0.10478,0.05871 0.190801,0.136394 0.25787,0.2328 0.07129,0.09217 0.123551,0.2012 0.157075,0.326942 0.03772,0.125743 0.06513,0.255747 0.08187,0.389876 0.02099,0.129931 0.03122,0.261896 0.03121,0.396015 0.004,0.129941 0.0071,0.249174 0.0072,0.358153 3.3e-5,0.167652 -0.0059,0.356308 -0.01894,0.565882 -0.0079,0.205376 -0.04208,0.400389 -0.100795,0.584813 -0.05446,0.180228 -0.144409,0.333206 -0.270149,0.458949 -0.125743,0.125742 -0.301684,0.188286 -0.528022,0.188286 -0.226335,-1.6e-5 -0.402277,-0.06257 -0.528019,-0.188287 -0.125742,-0.125742 -0.21812,-0.27872 -0.276801,-0.458948 -0.05447,-0.184424 -0.08822,-0.379436 -0.100799,-0.584813 -0.0079,-0.209572 -0.01231,-0.398228 -0.01225,-0.565883 l 3.1e-5,-0.358154 c 0.004,-0.134118 0.01448,-0.266085 0.03121,-0.396015 0.02099,-0.134129 0.0483,-0.264133 0.08186,-0.389876 0.03772,-0.125742 0.09001,-0.234735 0.157076,-0.326943 0.07129,-0.09643 0.159218,-0.174117 0.26401,-0.2328 0.104649,-0.05863 0.232583,-0.08793 0.383225,-0.088 z m -74.831031,0.289081 h 0.01278 v 2.181666 l -1.496058,4e-6 z m -6.7829126,0.01842 -0.904593,0.402667 -0.321826,0.14326 -0.582768,0.259407 0.20159,0.452295 0.570487,-0.253777 0.334105,-0.148889 0.904594,-0.402667 z m 87.9379006,-10e-7 -0.20108,0.452297 0.90409,0.402667 0.44668,0.199031 0.45792,0.203635 0.20158,-0.452296 -0.45792,-0.203636 -0.44667,-0.19903 z m -88.3108926,1.570759 -0.893848,0.426202 0.213357,0.446669 0.893337,-0.426202 z m 88.6844026,0 -0.21335,0.446669 0.89384,0.426202 0.21284,-0.446668 z m -88.1231246,1.153254 -0.882081,0.449738 0.224613,0.441041 0.882593,-0.449227 z m 87.5613446,0 -0.22513,0.441552 0.88259,0.449227 0.2246,-0.44104 z m -84.2044236,1.023807 -1.286284,0.742401 -0.85752,0.495275 -0.31671,0.182658 -0.540812,0.312105 0.247638,0.428761 0.552067,-0.318757 0.305454,-0.176006 2.143293,-1.237676 z m 80.8474986,0 -0.247128,0.428761 2.143283,1.237164 10e-6,5.11e-4 0.42365,0.244057 0.43386,0.250707 0.24764,-0.428761 -0.43387,-0.250195 v -5.12e-4 z m -83.6124436,0.115121 -0.870312,0.47225 0.236381,0.434901 0.8698,-0.472251 z m 86.3773886,0 -0.23588,0.4349 0.86981,0.472251 0.23637,-0.4349 z m -85.1059446,2.228226 -0.844218,0.517276 0.258894,0.422109 0.844218,-0.517276 z m 83.8344846,-10e-7 -0.25888,0.42211 0.84421,0.517276 0.2589,-0.42211 z m -83.1550156,1.088787 -0.830404,0.539277 0.269638,0.414946 0.830404,-0.539276 z m 82.4755556,0 -0.26964,0.414946 0.83041,0.539277 0.26963,-0.414946 z m -81.7684596,1.070367 -0.815565,0.560766 0.280382,0.407783 0.815566,-0.560766 z m 81.0613696,0 -0.28039,0.407783 0.81608,0.560766 0.28039,-0.407783 z m -79.524891,0.469692 -0.80124,0.581744 -0.3228506,0.234846 -0.0614,0.04451 -0.416481,0.302895 0.291128,0.400109 0.4159686,-0.302384 0.384759,-0.27936 0.801241,-0.582255 z m 77.988409,10e-7 -0.290616,0.400108 0.800728,0.582255 0.395505,0.287035 0.405732,0.294709 0.290623,-0.400109 -0.405226,-0.294709 -0.395505,-0.287546 z m -78.026782,1.613737 -0.785891,0.602721 0.30136,0.392945 0.785891,-0.602721 z m 78.065668,0 -0.301362,0.392945 0.785379,0.602721 0.301358,-0.392945 z m -77.276708,1.011527 -0.769518,0.623187 0.311593,0.384759 0.769518,-0.623187 z m 76.487235,0 -0.311593,0.384759 0.769517,0.623187 0.311593,-0.384759 z m -75.671668,0.99055 -0.753145,0.643141 0.321825,0.376573 0.752634,-0.643142 z m 74.856101,0 -0.321314,0.376573 0.752633,0.643141 0.321827,-0.376573 z m -73.279204,0.306477 -0.735748,0.662584 -0.261964,0.23587 -0.473786,0.426713 0.331035,0.367876 0.464066,-0.418017 0.271684,-0.244568 0.73575,-0.662583 z m 71.702306,0 -0.331036,0.367875 0.73575,0.662583 0.362758,0.326943 0.372991,0.335641 0.331035,-0.367874 -0.372479,-0.335641 -0.363269,-0.326944 z m -71.571835,1.609132 -0.718354,0.681515 0.340758,0.359176 0.718353,-0.681515 z m 71.441365,0 -0.340757,0.359176 0.718353,0.681516 0.340757,-0.359177 z m -57.825909,0.521369 c -0.222138,-2.7e-5 -0.419102,0.03565 -0.590953,0.106931 -0.167654,0.07129 -0.307919,0.169479 -0.421087,0.295221 -0.113167,0.125742 -0.20165,0.27677 -0.264521,0.452808 -0.05871,0.176039 -0.09188,0.371051 -0.100283,0.584814 l 0.53416,-3e-6 c -3.5e-5,-0.129938 0.01709,-0.253587 0.05065,-0.370944 0.03357,-0.117356 0.08386,-0.219992 0.150936,-0.308012 0.07129,-0.08801 0.159219,-0.157431 0.264012,-0.207728 0.108969,-0.05446 0.234579,-0.08186 0.377084,-0.08186 0.226336,1.6e-5 0.414991,0.06109 0.565882,0.182659 0.150891,0.117357 0.226148,0.295249 0.226148,0.53416 2e-6,0.117356 -0.02294,0.222446 -0.06908,0.314663 -0.04614,0.09218 -0.109155,0.169418 -0.188798,0.232288 -0.07545,0.05871 -0.165358,0.105132 -0.27015,0.138657 -0.100594,0.02931 -0.207636,0.044 -0.320803,0.044 l -0.113076,-1e-5 -0.06293,-3.6e-5 c -0.01673,0 -0.03539,-0.0022 -0.05628,-0.0071 l 2e-6,0.452808 c 0.100593,-0.01258 0.207123,-0.01893 0.320291,-0.01893 0.134127,-4.6e-5 0.257776,0.01907 0.370945,0.05679 0.117355,0.03356 0.21804,0.08782 0.301871,0.163216 0.08386,0.07128 0.15078,0.161682 0.201078,0.270661 0.0503,0.104782 0.07572,0.225987 0.07572,0.364293 4.6e-5,0.134127 -0.02732,0.255826 -0.08186,0.364805 -0.0503,0.104782 -0.119197,0.194705 -0.207217,0.27015 -0.08802,0.07129 -0.191167,0.127946 -0.308524,0.169867 -0.117356,0.03772 -0.241004,0.05731 -0.370944,0.0573 -0.30597,-10e-6 -0.538099,-0.09039 -0.697376,-0.270662 -0.159267,-0.184426 -0.243355,-0.420959 -0.25173,-0.710167 l -0.53416,3e-6 c -0.004,0.230525 0.02711,0.435797 0.09414,0.616024 0.07129,0.180237 0.171941,0.333206 0.301871,0.458948 0.12993,0.121554 0.286803,0.21393 0.471228,0.276801 0.184425,0.06288 0.389688,0.09414 0.616024,0.09414 0.209572,-4e-5 0.40705,-0.02731 0.591464,-0.08187 0.188614,-0.05871 0.351843,-0.144192 0.490159,-0.257358 0.138316,-0.113168 0.247299,-0.253945 0.326943,-0.421598 0.08386,-0.171852 0.125865,-0.368805 0.125865,-0.590953 8e-6,-0.268248 -0.06693,-0.500898 -0.201078,-0.697888 -0.12993,-0.196999 -0.3313,-0.324541 -0.603744,-0.383224 l 1e-6,-0.0128 c 0.176038,-0.07961 0.32265,-0.196934 0.440016,-0.352014 0.117357,-0.155089 0.176007,-0.333484 0.176007,-0.534672 -3e-5,-0.205374 -0.03564,-0.383269 -0.106931,-0.53416 -0.06703,-0.15089 -0.161388,-0.274539 -0.282941,-0.370944 -0.121554,-0.09644 -0.266214,-0.16777 -0.433876,-0.213869 -0.163465,-0.05029 -0.34135,-0.07521 -0.534161,-0.07521 z m 41.744311,0 c -0.234722,5e-6 -0.444401,0.03961 -0.628815,0.119214 -0.184425,0.07961 -0.339345,0.190578 -0.465088,0.333082 -0.121554,0.138318 -0.211476,0.304009 -0.270149,0.49681 -0.05871,0.192802 -0.08216,0.402479 -0.06958,0.628815 l 0.534671,4e-6 c -0.004,-0.134118 0.0088,-0.266085 0.03786,-0.396014 0.03356,-0.134129 0.08585,-0.253874 0.157076,-0.358666 0.07129,-0.104782 0.16118,-0.188348 0.27015,-0.251219 0.113168,-0.06704 0.247579,-0.100792 0.402667,-0.100793 0.117355,-2e-6 0.2283,0.01907 0.333083,0.0568 0.104781,0.03773 0.194704,0.09198 0.27015,0.163216 0.0796,0.07129 0.142689,0.157277 0.188796,0.257871 0.04615,0.09644 0.06907,0.205388 0.06908,0.326942 0,0.155078 -0.02491,0.29144 -0.07522,0.408807 -0.04614,0.117356 -0.117462,0.226348 -0.213868,0.326943 -0.09218,0.100596 -0.209509,0.201278 -0.352013,0.301871 -0.142515,0.09644 -0.308197,0.202936 -0.49681,0.320292 -0.15509,0.09218 -0.304155,0.19095 -0.446669,0.295732 -0.142505,0.104792 -0.270056,0.226489 -0.383225,0.364805 -0.113167,0.138317 -0.207495,0.301545 -0.28294,0.490159 -0.07129,0.184415 -0.117184,0.408758 -0.138145,0.672817 l 2.910764,3e-6 -2e-6,-0.471738 -2.2886,-3e-6 c 0.02515,-0.138306 0.07743,-0.259512 0.157076,-0.364294 0.08386,-0.10898 0.182564,-0.209664 0.295731,-0.301871 0.117357,-0.09218 0.244909,-0.178238 0.383225,-0.257871 l 0.414945,-0.251731 c 0.138317,-0.08802 0.272728,-0.179894 0.402668,-0.27629 0.12993,-0.09643 0.24528,-0.203446 0.345874,-0.320803 0.100593,-0.121554 0.180257,-0.257916 0.238939,-0.408807 0.06287,-0.150889 0.09414,-0.32488 0.09414,-0.52188 -4e-5,-0.209563 -0.03762,-0.393816 -0.113071,-0.553091 -0.07129,-0.159278 -0.16999,-0.291223 -0.295732,-0.396015 -0.125743,-0.108971 -0.274306,-0.190585 -0.446157,-0.245079 -0.167653,-0.05871 -0.34801,-0.088 -0.540812,-0.088 z m -39.153839,0.07521 -0.414945,2.313671 0.458948,0.02507 c 0.104781,-0.125731 0.224025,-0.226428 0.358152,-0.301872 0.138317,-0.07961 0.2957,-0.119214 0.47174,-0.119215 0.150891,1.1e-5 0.28674,0.02493 0.408295,0.07521 0.125741,0.0503 0.232783,0.121661 0.320803,0.213869 0.08802,0.08802 0.154969,0.195062 0.201077,0.320803 0.0503,0.121555 0.07572,0.255452 0.07572,0.402156 -4.6e-5,0.176039 -0.02544,0.33148 -0.07573,0.465599 -0.0503,0.12994 -0.119197,0.238923 -0.207217,0.326943 -0.08386,0.08802 -0.184516,0.154978 -0.301872,0.201077 -0.113168,0.04188 -0.232924,0.06293 -0.358665,0.06293 -0.134127,4.5e-5 -0.257776,-0.01907 -0.370945,-0.05679 -0.10897,-0.04188 -0.205249,-0.09861 -0.289081,-0.169867 -0.0796,-0.07545 -0.144641,-0.160964 -0.194938,-0.257359 -0.04613,-0.100594 -0.07293,-0.207635 -0.08136,-0.320803 l -0.534673,-4e-6 c 0.004,0.201187 0.04426,0.381535 0.119726,0.540812 0.07544,0.159267 0.178072,0.293185 0.308012,0.402155 0.129931,0.104791 0.278504,0.186405 0.446157,0.24508 0.17185,0.05445 0.354139,0.08187 0.546951,0.08186 0.259862,2.9e-5 0.486156,-0.03961 0.678956,-0.119214 0.197,-0.08386 0.36074,-0.195278 0.490671,-0.333594 0.12993,-0.138317 0.226209,-0.295189 0.289081,-0.471228 0.06703,-0.180228 0.100794,-0.364989 0.100795,-0.553603 3.9e-5,-0.255674 -0.03812,-0.477552 -0.113586,-0.666165 -0.07545,-0.192802 -0.178083,-0.352137 -0.308012,-0.477879 -0.129931,-0.12993 -0.282909,-0.22621 -0.458949,-0.289081 -0.176039,-0.06287 -0.362241,-0.09466 -0.55923,-0.09466 -0.150891,-10e-6 -0.303869,0.02731 -0.458948,0.08186 -0.150891,0.05029 -0.274549,0.129969 -0.370945,0.238939 l -0.01279,-0.01228 0.23894,-1.282701 1.79793,-5e-6 -2e-6,-0.471738 z m 41.693658,0 -0.414946,2.313671 0.458948,0.02507 c 0.104782,-0.125731 0.224535,-0.225914 0.358665,-0.30136 0.138316,-0.0796 0.295188,-0.119725 0.471228,-0.119725 0.150889,1e-5 0.287251,0.02492 0.408805,0.07522 0.125743,0.0503 0.232786,0.121661 0.320803,0.213869 0.08802,0.08802 0.15497,0.195062 0.201079,0.320803 0.0503,0.121554 0.07521,0.255452 0.07521,0.402155 -4.5e-5,0.17604 -0.02492,0.331481 -0.07522,0.465599 -0.0503,0.129941 -0.119198,0.238924 -0.207217,0.326943 -0.08386,0.08802 -0.184506,0.154979 -0.301872,0.201078 -0.113169,0.04188 -0.232924,0.06293 -0.358667,0.06293 -0.134116,4.6e-5 -0.257775,-0.01907 -0.370943,-0.05679 -0.10898,-0.04188 -0.205259,-0.09861 -0.289082,-0.169867 -0.0796,-0.07545 -0.14464,-0.160964 -0.194937,-0.257359 -0.04614,-0.100594 -0.07344,-0.207634 -0.08186,-0.320804 l -0.534161,3e-6 c 0.004,0.201187 0.04377,0.381534 0.119215,0.540811 0.07545,0.159268 0.178081,0.293185 0.308011,0.402155 0.12994,0.104792 0.279015,0.186407 0.446669,0.24508 0.17185,0.05446 0.35415,0.08187 0.546951,0.08187 0.25987,2.9e-5 0.486145,-0.03961 0.678957,-0.119215 0.19699,-0.08386 0.36074,-0.195277 0.49067,-0.333594 0.12994,-0.138317 0.22621,-0.295188 0.28908,-0.471228 0.06703,-0.180227 0.100283,-0.364988 0.100283,-0.553602 4.1e-5,-0.255674 -0.03762,-0.477552 -0.11307,-0.666166 -0.07545,-0.192801 -0.178072,-0.352136 -0.308012,-0.477879 -0.12993,-0.12993 -0.282908,-0.226209 -0.458948,-0.289081 -0.176039,-0.06287 -0.362752,-0.09465 -0.559742,-0.09465 -0.150891,-1.1e-5 -0.303869,0.02731 -0.458949,0.08186 -0.15089,0.05029 -0.274537,0.12997 -0.370944,0.23894 l -0.01228,-0.01228 0.238939,-1.282701 1.797929,-5e-6 -2e-6,-0.471739 z m -57.009319,0.326943 -0.699935,0.699934 0.349968,0.349968 0.700445,-0.699935 z m 69.660832,0 -0.349969,0.349967 0.699935,0.700446 0.349967,-0.350479 z m -68.746006,0.899989 -0.681514,0.718353 0.359176,0.340757 0.681514,-0.718353 z m 67.831179,-10e-7 -0.359176,0.340758 0.682027,0.718353 0.358664,-0.340757 z m -66.231257,0.13968 -0.662073,0.73575 -0.244567,0.271685 -0.418016,0.464064 0.367875,0.331547 0.426713,-0.473785 0.235871,-0.261963 0.662583,-0.73575 z m 64.631335,1e-6 -0.367875,0.331547 0.662073,0.73575 0.327453,0.363269 0.33513,0.37248 0.367875,-0.331547 -0.33513,-0.37248 -0.326943,-0.36327 z m -64.333045,1.586615 -0.64314,0.753145 0.376572,0.321315 0.64263,-0.752634 z m 64.035266,0 -0.376572,0.321826 0.64314,0.752634 0.376061,-0.321314 z m -63.052902,0.825799 -0.623186,0.769007 0.384758,0.311593 0.623188,-0.769518 z m 62.070539,0 -0.384759,0.311082 0.622674,0.769518 0.38476,-0.311593 z m -59.461135,0.771053 -0.581744,0.80124 -0.27936,0.384249 -0.302895,0.41648 0.40062,0.291128 0.302384,-0.416481 a 49.504934,49.504938 0 0 0 5.12e-4,-1e-6 l 0.861102,-1.185487 z m 56.85122,0 -0.400621,0.291128 0.582255,0.800728 0.287035,0.394993 0.294709,0.406248 0.400619,-0.291128 -0.29522,-0.405736 -0.151447,-0.208752 -0.135587,-0.18624 z m -58.457282,0.02814 -0.602721,0.785379 0.392945,0.301361 0.60272,-0.78538 z m 60.063344,0 -0.392435,0.301361 0.602722,0.785378 0.392434,-0.30136 z m -53.513231,1.444893 -0.742401,1.286283 -0.495275,0.857521 -0.495274,0.857521 0.42876,0.247127 0.312617,-0.540812 0.08135,-0.141215 0.101307,-0.174983 1.237676,-2.143805 z m 46.963117,0 -0.428761,0.247638 1.238187,2.143809 -5.1e-4,-7e-6 0.244567,0.422624 0.250707,0.434388 0.428761,-0.24713 -0.250707,-0.434388 -0.244568,-0.42313 z m -51.445152,0.07368 -0.560765,0.816077 0.408296,0.280384 0.560765,-0.816079 z m 55.927186,-10e-7 -0.407783,0.280384 0.560765,0.816077 0.407783,-0.280382 z m -29.761523,0.18624 c -0.222147,-2.7e-5 -0.419112,0.03565 -0.590952,0.106931 -0.167665,0.07129 -0.30792,0.16948 -0.421087,0.295221 -0.113167,0.125743 -0.201139,0.276769 -0.264009,0.452809 -0.05871,0.176038 -0.09238,0.371052 -0.100796,0.584813 l 0.53416,-3e-6 c -3.4e-5,-0.129938 0.01709,-0.253578 0.05065,-0.370945 0.03356,-0.117356 0.08387,-0.219992 0.150935,-0.308012 0.07129,-0.08801 0.159229,-0.157432 0.264011,-0.207728 0.10898,-0.05446 0.23457,-0.08186 0.377085,-0.08186 0.226337,1.6e-5 0.414991,0.06109 0.565882,0.182659 0.150891,0.117357 0.226148,0.295251 0.226149,0.53416 1e-6,0.117356 -0.02294,0.222447 -0.06907,0.314663 -0.04614,0.09218 -0.108652,0.169418 -0.188286,0.232289 -0.07544,0.05872 -0.16588,0.105132 -0.270662,0.138656 -0.100593,0.02931 -0.207635,0.044 -0.320803,0.044 l -0.113074,-1e-5 -0.06293,-3.6e-5 c -0.01672,-10e-7 -0.03539,-0.0022 -0.05628,-0.0071 l 2e-6,0.452808 c 0.100593,-0.01258 0.207634,-0.01893 0.320803,-0.01893 0.134117,-4.5e-5 0.257776,0.01959 0.370944,0.0573 0.117356,0.03356 0.21753,0.08782 0.30136,0.163216 0.08386,0.07128 0.151292,0.161679 0.20159,0.270657 0.0503,0.104779 0.07521,0.22598 0.07522,0.364294 4.6e-5,0.134114 -0.02732,0.255823 -0.08186,0.364803 -0.0503,0.104778 -0.119197,0.194702 -0.207217,0.27015 -0.08802,0.07124 -0.190655,0.127946 -0.308013,0.169864 -0.117355,0.03774 -0.241013,0.05682 -0.370944,0.05676 -0.305978,8.9e-5 -0.538612,-0.0904 -0.697888,-0.270666 -0.159296,-0.184457 -0.243345,-0.420962 -0.251732,-0.710168 l -0.534159,2.2e-5 c -0.004,0.230529 0.02701,0.435799 0.09415,0.616024 0.07129,0.180235 0.171931,0.333207 0.301872,0.458948 0.129929,0.121551 0.286802,0.213932 0.471227,0.276799 0.184416,0.06292 0.390199,0.09414 0.616536,0.09415 0.209575,4.55e-4 0.406528,-0.02729 0.590954,-0.08183 0.188613,-0.05872 0.351842,-0.14419 0.490158,-0.257365 0.138316,-0.113174 0.247309,-0.253946 0.326944,-0.421593 0.08385,-0.171858 0.125864,-0.368807 0.125864,-0.590953 8e-6,-0.26825 -0.06693,-0.500905 -0.201077,-0.697886 -0.129941,-0.197 -0.33131,-0.324542 -0.603744,-0.383224 l -10e-7,-0.0128 c 0.17604,-0.07961 0.322661,-0.196934 0.440017,-0.352013 0.117367,-0.15509 0.176007,-0.333486 0.176007,-0.534672 -2.9e-5,-0.205375 -0.03563,-0.38327 -0.106929,-0.53416 -0.06703,-0.150891 -0.161399,-0.274539 -0.282943,-0.370945 -0.121553,-0.09643 -0.265712,-0.16777 -0.433365,-0.213868 -0.163464,-0.05029 -0.34187,-0.07522 -0.534671,-0.07521 z m 3.583581,5e-6 c -0.230534,-5e-6 -0.429439,0.03317 -0.597093,0.100278 -0.163465,0.06704 -0.299836,0.157494 -0.408807,0.270661 -0.10898,0.113169 -0.194999,0.245125 -0.257871,0.396016 -0.06287,0.150892 -0.110749,0.310226 -0.144284,0.477879 -0.03356,0.167653 -0.05452,0.33919 -0.06293,0.515229 -0.0079,0.17604 -0.01279,0.346136 -0.01279,0.509601 2.2e-5,0.163465 0.004,0.333054 0.01279,0.509091 0.0079,0.176042 0.02937,0.348073 0.06293,0.515738 0.03356,0.167653 0.08139,0.326991 0.144284,0.477881 0.06287,0.146702 0.148891,0.276197 0.257871,0.389364 0.10897,0.113166 0.245342,0.203607 0.408807,0.270658 0.167653,0.06286 0.366559,0.09415 0.597093,0.09414 0.234706,-2.03e-4 0.43414,-0.03128 0.597603,-0.09419 0.163466,-0.06697 0.299325,-0.157493 0.408295,-0.270662 0.108979,-0.113169 0.195,-0.242663 0.25787,-0.389359 0.06287,-0.150895 0.111262,-0.310226 0.144797,-0.477884 0.03356,-0.167659 0.05452,-0.339702 0.06294,-0.515745 0.0079,-0.17603 0.01229,-0.345621 0.01228,-0.509086 -2.1e-5,-0.163464 -0.004,-0.333562 -0.01226,-0.509601 -0.0079,-0.176042 -0.02937,-0.347576 -0.06293,-0.51523 -0.03357,-0.167653 -0.08197,-0.326988 -0.144796,-0.477879 -0.06287,-0.150891 -0.14889,-0.282848 -0.257871,-0.396016 -0.10897,-0.113167 -0.247293,-0.203602 -0.414946,-0.270661 -0.163465,-0.06703 -0.36043,-0.100283 -0.590953,-0.100283 z m -2e-6,0.471228 c 0.150891,1e-5 0.278953,0.02929 0.383736,0.08801 0.104782,0.05871 0.190801,0.136404 0.25787,0.2328 0.07129,0.09217 0.123551,0.201201 0.157076,0.326942 0.03772,0.125743 0.06513,0.255747 0.08187,0.389876 0.02099,0.12993 0.03121,0.261896 0.03121,0.396016 0.004,0.12994 0.0061,0.249173 0.0061,0.358153 3.2e-5,0.167653 -0.0059,0.356314 -0.01892,0.565884 -0.0079,0.205376 -0.04158,0.400403 -0.100283,0.584815 -0.05446,0.18024 -0.144921,0.333205 -0.270661,0.458945 -0.125743,0.125751 -0.301695,0.188804 -0.528021,0.188798 -0.226337,-1.6e-5 -0.402278,-0.06306 -0.52802,-0.188798 -0.125742,-0.125741 -0.218118,-0.278702 -0.276802,-0.458941 -0.05447,-0.184419 -0.08773,-0.379437 -0.100283,-0.584812 -0.0079,-0.209577 -0.0128,-0.398237 -0.01284,-0.565889 l 3e-5,-0.358154 c 0.004,-0.134118 0.01499,-0.266086 0.03172,-0.396015 0.02099,-0.13413 0.04778,-0.264134 0.08135,-0.389876 0.03772,-0.125743 0.09049,-0.234725 0.157588,-0.326943 0.07128,-0.09643 0.159228,-0.174117 0.26401,-0.2328 0.104782,-0.05871 0.232333,-0.088 0.383224,-0.088 z m -28.686038,0.06089 -0.539277,0.830404 0.415457,0.269639 0.539276,-0.830405 z m 53.800776,0 -0.415458,0.269638 0.539276,0.830404 0.415459,-0.269638 z m -52.719154,0.690212 -0.517276,0.844219 0.42211,0.258383 0.517276,-0.844219 z m 51.637531,10e-7 -0.42211,0.258381 0.517276,0.844211 0.422109,-0.258375 z m -49.421584,1.293957 -0.472763,0.870306 0.435412,0.235871 0.472251,-0.869796 z m 47.205637,0 -0.434901,0.236376 0.472764,0.869804 0.434901,-0.235871 z m -46.073361,0.603232 -0.449738,0.882072 0.441552,0.224618 0.449225,-0.882082 z m 44.941085,0 -0.44104,0.224612 0.449737,0.882074 0.441042,-0.224612 z m -42.227818,0.211818 -0.403178,0.904596 -0.148378,0.333592 -0.254289,0.570996 0.452296,0.20107 0.259406,-0.582242 0.143262,-0.322345 0.402666,-0.904593 z m 39.515062,-10e-7 -0.452296,0.201076 0.402666,0.904591 0.19852,0.446165 0.204147,0.458433 0.452296,-0.20108 -0.204147,-0.45843 -0.198519,-0.446164 z m -41.080704,0.361227 -0.426202,0.893848 0.447181,0.213358 0.426201,-0.893849 z m 42.645834,-4e-6 -0.44718,0.213363 0.426203,0.893842 0.44718,-0.213353 z m -40.30658,1.055527 -0.379132,0.914825 0.457414,0.18931 0.378619,-0.914308 z m 37.967839,5e-6 -0.457412,0.189821 0.378618,0.914309 0.457413,-0.1893 z m -34.05834,0.4088 -0.305965,0.94143 -0.146843,0.45178 -0.159123,0.49017 0.470717,0.15298 0.159123,-0.49016 0.146842,-0.45179 0.305965,-0.94143 z m 30.148329,1e-5 -0.470717,0.15297 0.305965,0.94144 0.150937,0.46457 0.155029,0.47737 0.470716,-0.15299 -0.155029,-0.47736 -0.150936,-0.46457 z m -32.868759,0.0726 -0.355083,0.92455 0.462528,0.17754 0.354573,-0.92455 z m 35.589189,0 -0.462018,0.17754 0.354572,0.92454 0.46253,-0.17753 z m -34.387841,0.45025 -0.330524,0.93325 0.466622,0.16525 0.330525,-0.93324 z m 33.186492,0 -0.466622,0.16526 0.330524,0.93325 0.466623,-0.16526 z m -16.345608,0.41801 -0.495275,4.9e-4 v 1.48531 l 5e-6,0.99005 -3e-6,0.47532 -2e-6,0.51472 h 0.495275 l -4e-6,-0.50244 -10e-7,-0.4876 10e-7,-0.99055 z m -10.473429,0.38476 -0.206194,0.96855 -0.07317,0.34485 -0.132517,0.6237 0.484019,0.10284 0.129959,-0.61091 0.07624,-0.35764 0.205682,-0.96855 z m 20.451582,0 -0.48402,0.10281 0.205682,0.96855 0.101822,0.47787 0.104375,0.49067 0.484019,-0.1028 -0.104375,-0.49067 -0.101306,-0.47788 h -5.12e-4 z m -24.38257,0.003 -0.281406,0.9491 0.474809,0.14071 0.281406,-0.94911 z m 28.31356,0 -0.474299,0.1407 0.280896,0.94911 0.474809,-0.14071 z m -27.080488,0.35457 -0.256337,0.95627 0.478391,0.12791 0.256335,-0.95627 z m 25.847416,0 -0.477878,0.12791 0.255824,0.95628 0.47839,-0.12791 z m -24.605649,0.32183 -0.230753,0.96292 0.480949,0.11563 0.231266,-0.96292 z m 23.36388,0 -0.48146,0.11563 0.231265,0.96292 0.481459,-0.11563 z m -16.947305,0.13303 -0.103354,0.98492 h -5.11e-4 l -0.03786,0.36327 -0.06549,0.62114 0.492205,0.0517 0.06702,-0.63393 0.02762,-0.26504 0.0092,-0.0854 0.103353,-0.98493 z m 10.531244,0 -0.492719,0.0516 0.154518,1.47048 a 49.504934,49.504938 0 0 0 5.12e-4,0 l 0.05219,0.49885 0.492204,-0.0517 -0.05219,-0.49886 -0.05117,-0.48556 z m -14.440745,0.4134 -0.1801,0.97315 0.486577,0.0906 0.180612,-0.97366 z m 18.349733,0 -0.48709,0.09 0.180611,0.97366 0.486576,-0.0906 z m -17.085963,0.22359 -0.15503,0.97775 0.489138,0.0778 0.154516,-0.97827 z m 15.822704,0 -0.489135,0.0773 0.15503,0.97828 0.488623,-0.0778 z m -14.553818,0.19033 -0.129446,0.98185 0.49067,0.0645 0.129447,-0.98134 z m 13.284932,0 -0.491182,0.065 0.129446,0.98133 0.49067,-0.0644 z m -10.73488,0.2814 -0.07777,0.98697 0.493739,0.0389 0.07777,-0.98696 z m 8.184316,0 -0.493739,0.0389 0.07777,0.98697 0.493741,-0.0389 z m -6.904174,0.0901 -0.05219,0.98901 0.494764,0.0256 0.05167,-0.9885 z m 5.624032,0 -0.494251,0.0261 0.05167,0.9885 0.494765,-0.0255 z m -4.342355,0.0568 -0.02609,0.99004 0.495274,0.0128 0.02558,-0.98952 z m 3.060676,-2e-5 -0.494763,0.0133 0.02609,0.98953 0.494764,-0.0128 z"
     inkscape:label="detailed_watch_face_black"
     inkscape:export-filename="svg_black_face_detailed.svg"
     inkscape:export-xdpi="3017.821"
     inkscape:export-ydpi="3017.821" />
</svg>
