<?xml version="1.0" encoding="UTF-8" standalone="no"?>
<!-- Created with Inkscape (http://www.inkscape.org/) -->

<svg
   width="99.999992mm"
   height="100.00003mm"
   viewBox="0 0 99.999992 100.00003"
   version="1.1"
   id="svg1"
   inkscape:export-filename="orange_hand.png"
   inkscape:export-xdpi="1451.4286"
   inkscape:export-ydpi="1451.4286"
   inkscape:version="1.3.2 (091e20e, 2023-11-25)"
   sodipodi:docname="whole_drawing.svg"
   xmlns:inkscape="http://www.inkscape.org/namespaces/inkscape"
   xmlns:sodipodi="http://sodipodi.sourceforge.net/DTD/sodipodi-0.dtd"
   xmlns="http://www.w3.org/2000/svg"
   xmlns:svg="http://www.w3.org/2000/svg">
  <sodipodi:namedview
     id="namedview1"
     pagecolor="#000000"
     bordercolor="#000000"
     borderopacity="0.25"
     inkscape:showpageshadow="2"
     inkscape:pageopacity="0.0"
     inkscape:pagecheckerboard="true"
     inkscape:deskcolor="#d1d1d1"
     inkscape:document-units="mm"
     inkscape:export-bgcolor="#ffffff00"
     inkscape:zoom="1.9984199"
     inkscape:cx="482.1309"
     inkscape:cy="192.6522"
     inkscape:window-width="1376"
     inkscape:window-height="789"
     inkscape:window-x="56"
     inkscape:window-y="47"
     inkscape:window-maximized="0"
     inkscape:current-layer="layer6" />
  <defs
     id="defs1">
    <linearGradient
       id="swatch172"
       inkscape:swatch="solid">
      <stop
         style="stop-color:#fb9f08;stop-opacity:0.98044691;"
         offset="0"
         id="stop172" />
    </linearGradient>
  </defs>
  <path
     id="rect266"
     style="display:inline;fill:#ffffff;fill-opacity:1;fill-rule:evenodd;stroke-width:0.261959"
     d="m 49.752105,5.9214731e-6 -6e-6,0.5139899985269 10e-7,0.47598 -5e-6,0.98996998 -10e-7,1.48526 h 0.495275 v -1.48526 l 5e-6,-0.98996998 2e-6,-0.48898 3e-6,-0.5009899985269 z M 48.938584,0.01000592 l -0.495275,0.01 0.02609,0.98996998 0.494764,-0.01 z m 2.122826,0 -0.0261,0.98997 0.494764,0.01 0.02609,-0.98996998 z m -3.431108,0.04 -0.494253,0.03 0.05168,0.98896998 0.494251,-0.03 z m 4.73888,0 -0.05167,0.98796998 0.494252,0.03 0.05219,-0.98896998 z m -6.045628,0.08 -0.493229,0.04 0.07726,0.98696998 0.49374,-0.04 z m 7.352376,0 -0.07777,0.98696998 0.49374,0.04 0.07777,-0.98696998 z m -8.656567,0.11399 -0.492205,0.05 0.103349,0.98396998 h 5.12e-4 l 0.103352,0.98497 0.492206,-0.05 -0.103867,-0.98498 h 5.12e-4 z m 9.960757,0 -0.05219,0.49799 a 49.504933,49.503372 0 0 0 -5.12e-4,0 L 54.7729,2.2129459 l 0.492718,0.05 0.103352,-0.98497 0.05117,-0.48597998 0.05219,-0.49799 z m -11.261365,0.147 -0.490669,0.06 0.129446,0.98196998 0.49067,-0.06 z m 12.561973,0 -0.129446,0.98096998 0.491181,0.06 0.128936,-0.98196998 z m -13.857977,0.18099 -0.489134,0.08 0.155028,0.97796998 0.488625,-0.08 z m 15.154493,0 -0.15503,0.97797998 0.488624,0.08 0.155029,-0.97796998 z m -16.445891,0.215 -0.486577,0.09 0.180099,0.97297998 0.487089,-0.09 z m 17.736778,0 -0.180611,0.97396998 0.487088,0.09 0.180099,-0.97297998 z m -19.022037,0.24898998 -0.484019,0.103 0.132517,0.62298 0.07317,0.34499 0.206193,0.96897 0.48402,-0.103 -0.205683,-0.96897 -0.07624,-0.35799 z m 20.307295,0 -0.104376,0.48999 -0.01536,0.07 -0.08647,0.40699 -0.205682,0.96897 0.48453,0.103 0.205683,-0.96897 0.101818,-0.47799 0.103864,-0.48998 z m -21.585391,0.28199 -0.480949,0.116 0.230753,0.96297 0.48146,-0.116 z m 22.863488,0 -0.231265,0.96297 0.481461,0.116 0.231263,-0.96297 z m -24.133397,0.31599 -0.478391,0.128 0.256335,0.95597 0.478391,-0.128 z m 25.403817,0 -0.256334,0.95597 0.477878,0.128 0.256335,-0.95597 z m -26.665541,0.34899 -0.474808,0.141 0.281405,0.94897 0.474809,-0.141 z m 27.926753,0 -0.280894,0.94897 0.474297,0.141 0.281406,-0.94897 z m -29.178754,0.38199 -0.470716,0.153 0.159122,0.48998 0.146843,0.45199 0.305966,0.94097 0.470715,-0.15299 -0.305966,-0.94098 -0.146841,-0.45198 z m 30.430756,0 -0.155029,0.47699 -0.150936,0.46498 -0.305965,0.94098 0.470714,0.15299 0.305967,-0.94097 0.150935,-0.46499 0.155029,-0.47698 z m -31.672525,0.41499 -0.466624,0.16499 0.330526,0.93298 0.466623,-0.165 z m 32.914293,0 -0.330524,0.93297 0.466623,0.165 0.330525,-0.93298 z m -34.144295,0.44699 -0.462529,0.17699 0.355084,0.92397 0.462018,-0.17699 z m 35.374297,0 -0.354572,0.92397 0.462018,0.17699 0.355083,-0.92397 z m -36.592529,0.47898 -0.457414,0.189 0.379131,0.91497 0.456902,-0.18999 z m 37.810762,0 -0.37862,0.91398 0.457414,0.18999 0.378619,-0.91497 z m -39.016204,0.51099 -0.452297,0.20099 0.254289,0.57099 0.148889,0.33399 0.402666,0.90497 0.451786,-0.20099 -0.402667,-0.90498 -0.143773,-0.32199 z m 40.221646,0 -0.203636,0.45798 -0.199031,0.44699 -0.402666,0.90498 0.452296,0.20099 0.402667,-0.90497 0.19903,-0.44699 0.203636,-0.45799 z m -41.412761,0.54198 -0.44718,0.213 0.426713,0.89397 0.446668,-0.21299 z m 42.603876,0 -0.426202,0.89398 0.44718,0.21299 0.426202,-0.89397 z m -43.780667,0.57399 -0.441041,0.22499 0.449228,0.88197 0.44104,-0.22499 z m 44.957969,0 -0.449738,0.88197 0.44104,0.22499 0.449737,-0.88197 z m -24.082232,0.10799 c -0.318554,10e-5 -0.58298,0.07 -0.792542,0.201 -0.209574,0.13399 -0.377208,0.31299 -0.502951,0.53498 -0.125742,0.22199 -0.215664,0.47799 -0.27015,0.76698 -0.0503,0.28499 -0.07572,0.58098 -0.07572,0.88697 5e-6,0.235 0.01706,0.47799 0.05065,0.72898 0.03772,0.25199 0.111035,0.48199 0.220008,0.69198 0.10898,0.209 0.263899,0.38099 0.465087,0.51499 0.201188,0.13399 0.467564,0.20199 0.798682,0.20199 0.280821,0 0.515414,-0.05 0.704027,-0.139 0.192801,-0.1 0.345781,-0.21599 0.458948,-0.35798 0.117357,-0.147 0.201434,-0.308 0.251732,-0.48399 0.0503,-0.176 0.07521,-0.34599 0.07521,-0.50999 -2.9e-5,-0.20499 -0.03127,-0.39598 -0.09415,-0.57198 -0.06287,-0.17599 -0.153305,-0.32899 -0.270661,-0.45899 -0.113169,-0.12999 -0.255385,-0.23099 -0.427226,-0.30199 -0.167663,-0.08 -0.358261,-0.11299 -0.572022,-0.11299 -0.243108,0 -0.459133,0.05 -0.647746,0.13799 -0.184415,0.09 -0.339346,0.241 -0.465087,0.44699 l -0.01279,-0.01 c 0.004,-0.172 0.02083,-0.35599 0.05014,-0.55298 0.02931,-0.197 0.08159,-0.37899 0.157075,-0.54699 0.0796,-0.17199 0.188626,-0.31199 0.326944,-0.42099 0.138316,-0.11299 0.320615,-0.16999 0.54695,-0.16999 0.213763,0 0.385801,0.06 0.515741,0.18199 0.129931,0.122 0.207652,0.28299 0.2328,0.48399 h 0.53416 c -0.03356,-0.36899 -0.159134,-0.64898 -0.377085,-0.84198 -0.21795,-0.19699 -0.511193,-0.29599 -0.880033,-0.29599 z m 3.363571,0 c -0.230524,0 -0.429942,0.03 -0.597604,0.101 -0.163466,0.07 -0.299324,0.15699 -0.408295,0.26999 -0.10898,0.113 -0.194999,0.24499 -0.25787,0.39599 -0.06287,0.151 -0.111262,0.30999 -0.144797,0.47799 -0.03356,0.16799 -0.05452,0.33999 -0.06294,0.51598 -0.0079,0.176 -0.01229,0.34599 -0.01229,0.50899 2.1e-5,0.16399 0.004,0.33299 0.01224,0.50898 0.0079,0.176 0.02937,0.34799 0.06294,0.51599 0.03356,0.16799 0.08197,0.32699 0.144797,0.47798 0.06287,0.147 0.14889,0.27699 0.25787,0.38999 0.108969,0.113 0.24483,0.203 0.408294,0.26999 0.167663,0.06 0.367082,0.09 0.597606,0.09 0.234721,0 0.433626,-0.03 0.597091,-0.09 0.163466,-0.07 0.299837,-0.15699 0.408807,-0.26999 0.10898,-0.113 0.194999,-0.24299 0.257871,-0.38999 0.06287,-0.15099 0.11075,-0.30999 0.144285,-0.47798 0.03356,-0.168 0.05451,-0.33999 0.06294,-0.51599 0.0079,-0.17599 0.01279,-0.34599 0.0128,-0.50898 -2.1e-5,-0.163 -0.004,-0.33299 -0.01279,-0.50899 -0.0079,-0.17599 -0.02937,-0.34799 -0.06293,-0.51598 -0.03356,-0.168 -0.08139,-0.32699 -0.144284,-0.47799 -0.06287,-0.151 -0.148891,-0.28299 -0.257871,-0.39599 -0.108969,-0.113 -0.247293,-0.20299 -0.414946,-0.26999 -0.163465,-0.07 -0.360419,-0.101 -0.590954,-0.101 z m 2e-6,0.47199 h 5.12e-4 c 0.150641,10e-5 0.278063,0.03 0.382713,0.09 0.104782,0.06 0.190811,0.13599 0.25787,0.23199 0.07129,0.09 0.123541,0.20099 0.157076,0.32699 0.03772,0.126 0.06503,0.25599 0.08187,0.38999 0.02099,0.12999 0.03122,0.26199 0.03121,0.39599 0.004,0.12999 0.0071,0.24999 0.0072,0.35899 3.3e-5,0.16799 -0.0059,0.35599 -0.01894,0.56598 -0.0079,0.20499 -0.04208,0.39999 -0.100795,0.58498 -0.05446,0.18 -0.144407,0.33299 -0.270149,0.45899 -0.125743,0.126 -0.301685,0.18799 -0.528021,0.18799 -0.226337,0 -0.402278,-0.06 -0.52802,-0.18799 -0.125743,-0.126 -0.218118,-0.27899 -0.276801,-0.45899 -0.05447,-0.18399 -0.08822,-0.37999 -0.100799,-0.58498 -0.0079,-0.20999 -0.01231,-0.39799 -0.01225,-0.56598 l 1.7e-5,-0.35899 c 0.004,-0.134 0.01448,-0.266 0.03121,-0.39599 0.02099,-0.134 0.0483,-0.26399 0.08186,-0.38999 0.03772,-0.126 0.09001,-0.23499 0.157077,-0.32699 0.0713,-0.1 0.159228,-0.174 0.26401,-0.23199 0.10465,-0.06 0.232584,-0.09 0.383224,-0.09 z m -25.400747,0.02 -0.435413,0.23599 0.472762,0.86998 0.434901,-0.236 z m 47.280847,0 -0.472761,0.86997 0.4349,0.236 0.472763,-0.86998 z m -48.426427,0.63398 -0.42876,0.24699 0.318756,0.55199 0.176519,0.30499 0.495275,0.85797 0.7424,1.28627 0.428761,-0.248 -0.742913,-1.28626 -0.494763,-0.85798 -0.18317,-0.31699 z m 49.571495,0 -0.250707,0.43399 -0.244567,0.42298 -1.237677,2.14374 0.428761,0.248 1.237676,-2.14374 0.244567,-0.42399 0.250708,-0.43399 z m -50.699678,0.66398 -0.42211,0.25799 0.517276,0.84398 0.42211,-0.25799 z m 51.827862,0 -0.517276,0.84398 0.422109,0.25799 0.517277,-0.84398 z m -27.598786,0.26899 c 0.15089,0 0.282846,0.03 0.396014,0.08 0.113169,0.05 0.207496,0.128 0.282941,0.21999 0.07545,0.09 0.129681,0.195 0.163216,0.32099 0.03772,0.122 0.05679,0.252 0.05679,0.38999 3.4e-5,0.13 -0.02095,0.256 -0.06293,0.37699 -0.03772,0.117 -0.09446,0.222 -0.169867,0.31499 -0.07545,0.09 -0.169773,0.166 -0.282942,0.22 -0.10898,0.05 -0.236521,0.08 -0.383223,0.08 -0.146694,0 -0.27866,-0.02 -0.396016,-0.08 -0.113167,-0.05 -0.209447,-0.126 -0.289081,-0.214 -0.07545,-0.09 -0.134608,-0.19299 -0.176518,-0.31399 -0.04188,-0.12099 -0.06242,-0.25099 -0.06243,-0.38999 4.3e-5,-0.13799 0.01855,-0.26799 0.05628,-0.38999 0.04188,-0.12599 0.103014,-0.23299 0.182658,-0.32099 0.0796,-0.09 0.175913,-0.16399 0.289081,-0.21399 0.113168,-0.05 0.245124,-0.08 0.396016,-0.08 z m -25.339352,0.42399 -0.415458,0.26999 0.539278,0.82998 0.415457,-0.26999 z m 54.048413,0 -0.539277,0.82998 0.415458,0.26999 0.539277,-0.82998 z m -55.140269,0.72198 -0.408295,0.27999 0.560767,0.81598 0.408294,-0.27999 z m 56.232637,0 -0.560767,0.81598 0.407783,0.27999 0.560767,-0.81598 z m -57.305561,0.74998 -0.400621,0.29099 0.302895,0.4159901 0.27936,0.38399 0.581744,0.80097 0.40062,-0.29099 -0.581744,-0.80098 -0.279871,-0.3849801 z m 58.377974,0 -0.29471,0.40599 -0.287033,0.3949801 -0.582256,0.80098 0.400621,0.29099 0.581744,-0.80097 0.243544,-0.33499 0.044,-0.06 0.294709,-0.4049901 z m -59.430433,0.7779701 -0.392947,0.301 0.602722,0.78497 0.392944,-0.30099 z m 60.483404,0 -0.602722,0.78498 0.392435,0.30099 0.602721,-0.78497 z m -61.515399,0.80498 -0.384758,0.31199 0.623186,0.76898 0.38476,-0.31099 z m 62.547393,0 -0.623187,0.76898 0.384759,0.31099 0.622675,-0.76898 z m -54.840444,0.40799 -0.414945,2.31363 0.458948,0.02 c 0.104791,-0.12599 0.224535,-0.22599 0.358665,-0.30199 0.138316,-0.08 0.295187,-0.119 0.471227,-0.119 0.150891,0 0.287252,0.02 0.408806,0.08 0.125743,0.05 0.232784,0.122 0.320803,0.214 0.08802,0.09 0.154969,0.19499 0.201078,0.32099 0.0503,0.12199 0.07521,0.25499 0.07522,0.40198 -4.5e-5,0.176 -0.02492,0.331 -0.07522,0.46499 -0.0503,0.13 -0.119707,0.23899 -0.207728,0.32699 -0.08386,0.09 -0.184004,0.156 -0.30136,0.202 -0.113169,0.04 -0.232923,0.06 -0.358666,0.06 -0.134126,0 -0.257776,-0.02 -0.370944,-0.06 -0.108969,-0.04 -0.20525,-0.1 -0.289081,-0.17 -0.0796,-0.08 -0.144641,-0.16099 -0.194938,-0.25799 -0.04614,-0.101 -0.07344,-0.207 -0.08187,-0.31999 h -0.53416 c 0.004,0.20099 0.04376,0.38099 0.119214,0.53998 0.07545,0.159 0.178081,0.29399 0.308012,0.40299 0.12993,0.105 0.279014,0.18599 0.446669,0.24499 0.171851,0.05 0.354139,0.08 0.54695,0.08 0.259862,0 0.486156,-0.04 0.678957,-0.12 0.197,-0.08 0.360228,-0.19499 0.490159,-0.33299 0.129939,-0.13799 0.226721,-0.29599 0.289592,-0.47198 0.06703,-0.18 0.100282,-0.36499 0.100282,-0.55299 4.1e-5,-0.25599 -0.03762,-0.47798 -0.11307,-0.66598 -0.07545,-0.19299 -0.178082,-0.35199 -0.308012,-0.47798 -0.12993,-0.13 -0.282908,-0.227 -0.458948,-0.28999 -0.176039,-0.06 -0.362743,-0.09 -0.559742,-0.09 -0.150892,0 -0.303861,0.03 -0.458949,0.08 -0.150891,0.05 -0.274539,0.12999 -0.370944,0.23899 l -0.01228,-0.01 0.238939,-1.28266 h 1.797929 l 10e-7,-0.47099 z m 3.495577,0 -0.414946,2.31363 0.458948,0.02 c 0.104782,-0.12599 0.224536,-0.22599 0.358666,-0.30199 0.138316,-0.08 0.295187,-0.119 0.471227,-0.119 0.150891,0 0.287252,0.02 0.408806,0.08 0.125732,0.05 0.232784,0.122 0.320803,0.214 0.08802,0.09 0.154978,0.19499 0.201077,0.32099 0.0503,0.12199 0.07521,0.25499 0.07522,0.40198 -4.5e-5,0.176 -0.02493,0.331 -0.07521,0.46499 -0.0503,0.13 -0.119197,0.23899 -0.207216,0.32699 -0.08386,0.09 -0.184506,0.156 -0.301874,0.202 -0.113167,0.04 -0.232921,0.06 -0.358664,0.06 -0.134118,10e-5 -0.257776,-0.02 -0.370944,-0.06 -0.10898,-0.04 -0.20526,-0.1 -0.289081,-0.17 -0.0796,-0.08 -0.144641,-0.16199 -0.194938,-0.25799 -0.04614,-0.101 -0.07344,-0.207 -0.08187,-0.31999 h -0.53416 c 0.004,0.20099 0.04376,0.38099 0.119213,0.53998 0.07545,0.159 0.178082,0.29399 0.308012,0.40299 0.129941,0.105 0.279015,0.18599 0.446669,0.24499 0.171841,0.05 0.35415,0.08 0.546951,0.08 0.259872,0 0.486145,-0.04 0.678957,-0.12 0.19699,-0.08 0.360738,-0.19499 0.490669,-0.33299 0.129941,-0.13799 0.226211,-0.29599 0.289081,-0.47198 0.06703,-0.18 0.100283,-0.36399 0.100283,-0.55299 4e-5,-0.25599 -0.03763,-0.47798 -0.113071,-0.66598 -0.07545,-0.19299 -0.178071,-0.35199 -0.308012,-0.47798 -0.12993,-0.13 -0.282909,-0.227 -0.458948,-0.28999 -0.176039,-0.06 -0.362751,-0.09 -0.559743,-0.09 -0.150891,0 -0.303869,0.03 -0.458947,0.08 -0.150891,0.05 -0.274538,0.12999 -0.370944,0.23899 l -0.01228,-0.01 0.23894,-1.28266 h 1.797929 l 2e-6,-0.47099 z m 40.154108,0 -0.414945,2.31363 0.458948,0.02 c 0.104792,-0.12599 0.224546,-0.22599 0.358664,-0.30199 0.138317,-0.08 0.295189,-0.119 0.471228,-0.119 0.150892,0 0.287252,0.02 0.408807,0.08 0.12574,0.05 0.232783,0.122 0.320803,0.214 0.08802,0.09 0.154968,0.19499 0.201078,0.32099 0.0503,0.12199 0.07521,0.25499 0.07522,0.40198 -4.6e-5,0.176 -0.02493,0.331 -0.07521,0.46499 -0.0503,0.13 -0.119197,0.23899 -0.207218,0.32699 -0.08386,0.09 -0.184515,0.156 -0.301871,0.202 -0.113167,0.04 -0.232923,0.06 -0.358665,0.06 -0.134127,10e-5 -0.257777,-0.02 -0.370944,-0.06 -0.108971,-0.04 -0.20525,-0.1 -0.289082,-0.17 -0.0796,-0.08 -0.14464,-0.16199 -0.194937,-0.25799 -0.04614,-0.101 -0.07345,-0.207 -0.08187,-0.31999 h -0.53416 c 0.004,0.20099 0.04376,0.38099 0.119214,0.53998 0.07545,0.159 0.178071,0.29399 0.308012,0.40299 0.12993,0.105 0.279014,0.18599 0.446669,0.24499 0.17185,0.05 0.354149,0.08 0.54695,0.08 0.259872,0 0.486155,-0.04 0.678957,-0.12 0.197,-0.08 0.360729,-0.19499 0.49067,-0.33299 0.129931,-0.13799 0.22621,-0.29599 0.289081,-0.47198 0.06703,-0.18 0.100283,-0.36399 0.100283,-0.55299 4e-5,-0.25599 -0.03762,-0.47798 -0.113071,-0.66598 -0.07545,-0.19299 -0.178082,-0.35199 -0.308011,-0.47798 -0.129942,-0.13 -0.282909,-0.227 -0.45895,-0.28999 -0.176039,-0.06 -0.362742,-0.09 -0.559741,-0.09 -0.150892,-10e-5 -0.303861,0.03 -0.458948,0.08 -0.150891,0.05 -0.27455,0.12999 -0.370945,0.23899 l -0.01228,-0.01 0.238938,-1.28266 h 1.79793 l 10e-7,-0.47099 z m -52.367137,0.42399 -0.376573,0.32099 0.643141,0.75298 0.376061,-0.32199 z m 64.5684,0 -0.643141,0.75298 0.376572,0.32199 0.64263,-0.75298 z m -65.556903,0.85797 -0.367875,0.33199 0.417504,0.46399 0.24508,0.27199 0.662583,0.73598 0.367875,-0.33199 -0.662584,-0.73598 -0.236381,-0.26299 z m 66.544894,0 -0.335129,0.37299 -0.326943,0.36299 -0.662583,0.73598 0.367874,0.33199 0.662584,-0.73598 0.326943,-0.36399 0.335129,-0.37199 z m -67.510374,0.88398 -0.359176,0.34099 0.681515,0.71798 0.359176,-0.34099 z m 68.476366,0 -0.681516,0.71798 0.358665,0.34099 0.681515,-0.71798 z m -69.418821,0.90897 -0.349967,0.34999 0.699934,0.69998 0.350479,-0.34999 z m 70.360764,5e-4 -0.699934,0.69998 0.349966,0.34999 0.699934,-0.69998 z m -71.27866,0.93297 -0.340757,0.35899 0.718353,0.68198 0.340758,-0.35899 z m 72.196555,0 -0.718354,0.68198 0.34127,0.35899 0.717841,-0.68198 z m -73.089892,0.95698 -0.331036,0.36799 0.473275,0.42598 0.262475,0.236 0.735749,0.66198 0.331036,-0.36799 -0.73575,-0.66298 -0.271685,-0.245 z m 73.983229,0 -0.37248,0.33599 -0.363269,0.32699 -0.735749,0.66298 0.331035,0.36799 0.735749,-0.66198 0.363268,-0.32699 0.372485,-0.33599 z m -74.850983,0.97997 -0.321827,0.37699 0.753146,0.64298 0.321315,-0.37699 z m 75.718735,0 -0.752633,0.64298 0.321316,0.37699 0.753149,-0.64298 z m -76.560907,1.00227 -0.311594,0.38499 0.769518,0.62298 0.311593,-0.38499 z m 77.403085,0 -0.769524,0.62298 0.311594,0.38499 0.769524,-0.62298 z m -78.218652,1.02377 -0.301359,0.39299 0.78589,0.60298 0.301361,-0.39299 z m 79.034219,0 -0.785379,0.60298 0.301357,0.39299 0.785377,-0.60298 z m -79.8226668,1.04527 -0.290617,0.39999 0.41597,0.30199 0.3847598,0.27999 0.80124,0.58198 0.291127,-0.39999 -0.80124,-0.58198 -0.384759,-0.27999 a 49.504933,49.503372 0 0 0 0,5e-4 z m 80.6111108,0 -0.405227,0.29399 -0.396009,0.28799 -0.800735,0.58198 0.290623,0.39999 0.80124,-0.58198 0.335128,-0.24399 0.0604,-0.04 0.405216,-0.29499 z m -81.3714198,1.06527 -0.280383,0.40799 0.815566,0.56098 0.280383,-0.40799 z m 82.1322458,0 -0.816083,0.56098 0.280383,0.40799 0.81608,-0.56098 z m -82.8649258,1.08457 -0.269637,0.41498 0.830404,0.53899 0.269638,-0.41499 z m 83.5970858,0 -0.8304,0.53898 0.26963,0.41499 0.83041,-0.53899 z m -84.3011118,1.10366 -0.258894,0.42199 0.844218,0.51699 0.258894,-0.42199 z m 85.0051318,0 -0.8442,0.51699 0.25889,0.42199 0.84421,-0.51699 z m -85.6799958,1.12147 -0.247637,0.42899 0.540812,0.31199 0.316709,0.18299 2.143804,1.23767 0.247126,-0.42899 -1.285771,-0.74198 -0.857521,-0.49498 -0.305965,-0.177 z m 86.3548658,0 -0.43388,0.24999 -0.27219,0.157 -0.15145,0.09 -0.85751,0.49498 -1.285776,0.74198 0.247128,0.42899 2.143788,-1.23757 0.0322,-0.02 0.39141,-0.226 0.43388,-0.24999 z m -87.0000528,1.13887 -0.236382,0.43499 0.870314,0.47198 0.23638,-0.43499 z m 87.6452428,0 -0.8698,0.47198 0.23587,0.43499 0.87031,-0.47198 z m -78.451446,1.02227 c -0.230524,0 -0.429952,0.03 -0.597604,0.101 -0.163466,0.07 -0.299315,0.15699 -0.408295,0.26999 -0.10897,0.11299 -0.195,0.24499 -0.257871,0.39599 -0.06287,0.15099 -0.111262,0.30999 -0.144797,0.47798 -0.03356,0.168 -0.05451,0.33999 -0.06294,0.51599 -0.0079,0.17599 -0.01229,0.34599 -0.01229,0.50898 2.2e-5,0.163 0.004,0.33299 0.01224,0.50899 0.0079,0.17599 0.02937,0.34799 0.06293,0.51598 0.03356,0.168 0.08188,0.32699 0.144797,0.47799 0.06287,0.147 0.148901,0.27699 0.25787,0.38999 0.108979,0.11299 0.244831,0.20299 0.408294,0.26999 0.167654,0.06 0.367081,0.09 0.597606,0.09 0.234722,0 0.433626,-0.03 0.597093,-0.09 0.163464,-0.07 0.299825,-0.157 0.408805,-0.26999 0.108981,-0.113 0.194488,-0.24299 0.257359,-0.38999 0.06287,-0.151 0.111262,-0.30999 0.144797,-0.47799 0.03356,-0.16799 0.05452,-0.33999 0.06294,-0.51598 0.0079,-0.176 0.01279,-0.34599 0.01278,-0.50899 -2.2e-5,-0.16299 -0.004,-0.33299 -0.01279,-0.50898 -0.0079,-0.176 -0.02937,-0.34799 -0.06293,-0.51599 -0.03356,-0.16799 -0.08197,-0.32699 -0.144797,-0.47798 -0.06287,-0.151 -0.148378,-0.283 -0.257359,-0.39599 -0.10898,-0.113 -0.247283,-0.203 -0.414946,-0.26999 -0.163465,-0.07 -0.360427,-0.101 -0.590952,-0.101 z m 68.859589,0 c -0.02931,0.16799 -0.08357,0.30599 -0.163216,0.41499 -0.0796,0.10899 -0.178367,0.19499 -0.295733,0.25799 -0.113168,0.06 -0.240719,0.107 -0.383223,0.132 -0.142515,0.02 -0.289127,0.03 -0.440018,0.03 l -5e-6,0.42699 h 1.156836 l -3e-6,3.19361 h 0.53416 l -1e-6,-4.45727 z m 3.414226,0 c -0.230525,0 -0.42995,0.03 -0.597604,0.101 -0.163467,0.07 -0.299317,0.15699 -0.408297,0.26999 -0.108979,0.11299 -0.195,0.24499 -0.257871,0.39599 -0.06287,0.15099 -0.111271,0.30999 -0.144796,0.47798 -0.03356,0.168 -0.05452,0.33999 -0.06293,0.51599 -0.0079,0.17599 -0.01229,0.34599 -0.01228,0.50898 2.2e-5,0.163 0.004,0.33299 0.01226,0.50999 0.0079,0.17599 0.02937,0.34799 0.06293,0.51498 0.03357,0.168 0.08188,0.32699 0.144796,0.47799 0.06287,0.147 0.148892,0.27699 0.257871,0.38999 0.10898,0.11299 0.24483,0.20299 0.408297,0.26999 0.167654,0.06 0.36708,0.09 0.597604,0.09 0.234723,0 0.433624,-0.03 0.597089,-0.09 0.163465,-0.07 0.299832,-0.157 0.408812,-0.26999 0.10897,-0.113 0.195,-0.24299 0.257871,-0.38999 0.06287,-0.151 0.110752,-0.30999 0.144277,-0.47799 0.03356,-0.16799 0.05455,-0.33899 0.06297,-0.51498 0.0079,-0.176 0.01277,-0.34599 0.01277,-0.50999 -2e-5,-0.16399 -0.004,-0.33299 -0.01277,-0.50898 -0.0079,-0.176 -0.0294,-0.34799 -0.06297,-0.51599 -0.03356,-0.16799 -0.08139,-0.32699 -0.144287,-0.47798 -0.06287,-0.151 -0.148901,-0.283 -0.257871,-0.39599 -0.10898,-0.113 -0.247277,-0.203 -0.414941,-0.26999 -0.163465,-0.07 -0.360435,-0.101 -0.59096,-0.101 z m -76.763012,0.08 -0.414946,2.31363 0.458948,0.02 c 0.104792,-0.126 0.224024,-0.22599 0.358153,-0.30199 0.138316,-0.08 0.295711,-0.12 0.47174,-0.12 0.150891,0 0.287252,0.03 0.408806,0.08 0.125742,0.05 0.232272,0.122 0.320291,0.21399 0.08802,0.09 0.15548,0.195 0.201589,0.31999 0.0503,0.122 0.07521,0.256 0.07521,0.40299 -4.5e-5,0.176 -0.02492,0.33099 -0.07522,0.46499 -0.0503,0.12999 -0.119709,0.23899 -0.207728,0.32699 -0.08386,0.09 -0.184507,0.15499 -0.301873,0.20099 -0.113167,0.04 -0.23241,0.06 -0.358154,0.06 -0.134125,0 -0.257775,-0.02 -0.370944,-0.06 -0.108969,-0.04 -0.205249,-0.1 -0.28908,-0.16999 -0.0796,-0.08 -0.144641,-0.161 -0.194938,-0.25799 -0.04615,-0.101 -0.07344,-0.208 -0.08186,-0.321 h -0.534671 c 0.004,0.201 0.04425,0.38199 0.119725,0.54099 0.07544,0.15899 0.178072,0.29399 0.308011,0.40299 0.129931,0.10499 0.279017,0.18599 0.446668,0.24499 0.171852,0.05 0.354151,0.08 0.546953,0.08 0.25987,10e-5 0.486154,-0.04 0.678956,-0.12 0.196999,-0.08 0.360229,-0.19499 0.490158,-0.33299 0.129931,-0.138 0.22621,-0.29599 0.289081,-0.47199 0.06703,-0.17999 0.100794,-0.36398 0.100795,-0.55298 4e-5,-0.25599 -0.03762,-0.47799 -0.113075,-0.66698 -0.07545,-0.19299 -0.178081,-0.35199 -0.308012,-0.47799 -0.12994,-0.12999 -0.282908,-0.22599 -0.458947,-0.28899 -0.17604,-0.06 -0.362744,-0.09 -0.559742,-0.09 -0.150892,0 -0.30386,0.03 -0.458949,0.08 -0.150891,0.05 -0.274549,0.13 -0.370944,0.239 l -0.01279,-0.01 0.238939,-1.28267 h 1.798441 l 2e-6,-0.47098 z m -5.3201118,0.06 -0.224613,0.44099 0.88208,0.44999 0.225125,-0.44099 z m 88.8762748,0 -0.88209,0.44899 0.22461,0.44099 0.88209,-0.44999 z m -79.066967,0.33899 h 5.12e-4 c 0.150642,10e-5 0.278054,0.03 0.382713,0.09 0.104781,0.06 0.190801,0.136 0.25787,0.232 0.07129,0.09 0.123552,0.20099 0.157076,0.32699 0.03772,0.12599 0.06513,0.25599 0.08187,0.38998 0.02099,0.13 0.03121,0.262 0.03121,0.39599 0.004,0.13 0.0071,0.25 0.0071,0.35899 3.2e-5,0.168 -0.0059,0.35599 -0.01893,0.56599 -0.0079,0.20499 -0.04207,0.39998 -0.100795,0.58498 -0.05446,0.17999 -0.144406,0.33299 -0.270149,0.45899 -0.125743,0.12599 -0.301685,0.18799 -0.528021,0.18799 -0.226336,0 -0.40279,-0.06 -0.528532,-0.18799 -0.125742,-0.126 -0.217606,-0.279 -0.27629,-0.45899 -0.05445,-0.185 -0.08822,-0.37899 -0.100798,-0.58498 -0.0079,-0.21 -0.01231,-0.39799 -0.01225,-0.56599 l 1.7e-5,-0.35899 c 0.004,-0.13399 0.01448,-0.26599 0.03121,-0.39599 0.02099,-0.13399 0.0483,-0.26399 0.08186,-0.38998 0.03772,-0.126 0.09,-0.235 0.157077,-0.32699 0.07129,-0.1 0.159227,-0.174 0.26401,-0.232 0.104648,-0.06 0.232583,-0.09 0.383223,-0.09 z m 72.273816,0 h 5.05e-4 c 0.150643,10e-5 0.278059,0.03 0.382713,0.09 0.104782,0.06 0.190802,0.136 0.257871,0.232 0.07129,0.09 0.123554,0.20099 0.157079,0.32699 0.03772,0.12599 0.06515,0.25599 0.08188,0.38998 0.02099,0.13 0.03119,0.262 0.03119,0.39599 0.004,0.13 0.0069,0.25 0.0069,0.35899 4e-5,0.168 -0.0059,0.35599 -0.01891,0.56599 -0.0079,0.20499 -0.04208,0.39998 -0.100802,0.58498 -0.05445,0.17999 -0.144406,0.33299 -0.270148,0.45899 -0.125743,0.12599 -0.301683,0.18799 -0.52802,0.18799 -0.226336,0 -0.402277,-0.06 -0.528019,-0.18799 -0.125743,-0.126 -0.218119,-0.279 -0.276801,-0.45899 -0.05446,-0.185 -0.08822,-0.37899 -0.100798,-0.58498 -0.0079,-0.21 -0.01231,-0.39799 -0.01225,-0.56599 l 1.8e-5,-0.35899 c 0.004,-0.13399 0.01448,-0.26599 0.03121,-0.39599 0.02099,-0.13399 0.0483,-0.26399 0.08186,-0.38998 0.03772,-0.126 0.09,-0.235 0.157071,-0.32699 0.07129,-0.1 0.159218,-0.174 0.26401,-0.232 0.104654,-0.06 0.232584,-0.09 0.383228,-0.09 z m -82.6674268,0.83198 -0.213356,0.44699 0.893848,0.42599 0.212846,-0.44699 z m 90.0453878,0 -0.89385,0.42599 0.21335,0.44699 0.89334,-0.42599 z m -90.5995018,1.18597 -0.201589,0.45198 0.582255,0.259 0.322338,0.14399 0.904594,0.40299 0.201589,-0.45199 -0.904593,-0.40299 -0.334106,-0.14899 z m 91.1530918,0 -0.4574,0.20399 -0.44718,0.19899 -0.90408,0.40299 0.20108,0.45199 0.90458,-0.40299 0.44668,-0.19899 0.45792,-0.204 z m -91.6754838,1.19976 -0.189821,0.45699 0.914826,0.37899 0.189309,-0.45699 z m 92.1983938,0 -0.91483,0.37899 0.18932,0.45699 0.91482,-0.37899 z m -92.6895748,1.21367 -0.177543,0.46198 0.924547,0.35499 0.177031,-0.46298 z m 93.1802448,0 -0.92403,0.35399 0.17754,0.46298 0.92404,-0.35499 z m -93.6397058,1.22586 -0.165261,0.46699 0.933756,0.33099 0.165263,-0.46699 z m 94.0991658,0 -0.93325,0.33099 0.16527,0.46699 0.93325,-0.33099 z m -94.5258788,1.23706 -0.152983,0.47099 0.489647,0.159 0.451785,0.14699 0.941943,0.30599 0.152983,-0.47098 -0.941944,-0.30599 -0.451784,-0.147 z m 94.9525888,0 -0.47685,0.155 -0.33104,0.107 -0.13354,0.04 -0.94193,0.30599 0.15297,0.47098 0.94195,-0.30599 0.13354,-0.04 0.33103,-0.10699 0.47686,-0.155 z m -95.3470688,1.24837 -0.140704,0.47398 0.949618,0.281 0.140703,-0.47499 z m 95.7415588,0 -0.94962,0.28099 0.1407,0.47499 0.94962,-0.281 z m -96.1027828,1.25816 -0.128424,0.47799 0.95627,0.25599 0.128424,-0.47799 z m 96.4645128,0 -0.95678,0.25599 0.12843,0.47799 0.95626,-0.25599 z m -96.7929898,1.26677 -0.115633,0.48098 0.96241,0.23099 0.115632,-0.48098 z m 97.1214798,0 -0.96293,0.23099 0.11563,0.48098 0.96242,-0.23099 z m -97.4167018,1.27496 -0.10284,0.48498 0.610395,0.129 0.357642,0.08 0.968549,0.20599 0.102842,-0.48398 -0.968038,-0.206 -0.345363,-0.07 z m 97.7114018,0 -0.49016,0.104 -0.47787,0.10199 -0.96855,0.206 0.10281,0.48498 0.96855,-0.20599 0.47788,-0.101 0.49068,-0.104 z m -97.97336477,1.28266 -0.09005,0.48699 0.97366497,0.18099 0.09005,-0.48698 z m 98.23532477,0 -0.97366,0.181 0.0906,0.48698 0.97315,-0.18099 z m -98.46351977,1.28886 -0.07726,0.48899 0.97775797,0.155 0.07777,-0.48899 z m 98.69171977,0 -0.97827,0.155 0.0778,0.48899 0.97776,-0.155 z m -98.88563377,1.29437 -0.064465,0.49098 0.98133997,0.129 0.06447,-0.49099 z m 99.07955377,0 -0.98135,0.12899 0.0645,0.49099 0.98185,-0.129 z m -99.23970027,1.29906 -0.052188,0.49298 0.6344435,0.07 0.35047797,0.04 0.984411,0.103 0.05218,-0.49199 -0.984922,-0.10299 -0.36326997,-0.04 z m 99.40035027,0 -0.49834,0.05 -0.35765,0.04 -0.12894,0.01 -0.98439,0.10299 0.0517,0.49199 0.9844,-0.103 0.48658,-0.05 0.49835,-0.05 z m -99.52672647,1.30316 -0.038881,0.49299 0.98696867,0.08 0.03888,-0.49298 z m 99.65258647,0 -0.98697,0.08 0.0388,0.49298 0.98697,-0.08 z m -99.74468347,1.30566 -0.026099,0.49399 0.98901567,0.05 0.02558,-0.49399 z m 99.83678347,0 -0.9885,0.05 0.0256,0.49399 0.98902,-0.05 z m -92.8502348,0.60099 -2.030729,2.89831 2e-6,0.51499 h 1.955006 l -4e-6,1.04367 h 0.502949 l 4e-6,-1.04367 h 0.603744 l 2e-6,-0.47099 -0.603744,10e-5 5e-6,-2.94241 z m 82.9969238,0 c -0.02931,0.16799 -0.08356,0.30599 -0.163208,0.41498 -0.0796,0.109 -0.178366,0.195 -0.295732,0.258 -0.113158,0.06 -0.240722,0.10699 -0.383227,0.13199 -0.142505,0.02 -0.289131,0.03 -0.440022,0.03 v 0.42799 h 1.156843 l -10e-6,3.19361 h 0.534158 v -4.45737 z m -80.9539148,0.08 -0.414946,2.31364 0.458949,0.02 c 0.104791,-0.126 0.224545,-0.226 0.358664,-0.301 0.138317,-0.08 0.295189,-0.11999 0.471227,-0.11999 0.1508908,10e-5 0.2872538,0.03 0.4088068,0.08 0.125743,0.05 0.232783,0.12099 0.320803,0.21299 0.08802,0.09 0.154969,0.19499 0.201077,0.32099 0.0503,0.122 0.07522,0.25499 0.07522,0.40199 -4.6e-5,0.17599 -0.02491,0.33199 -0.07522,0.46598 -0.0503,0.13 -0.119709,0.239 -0.207728,0.327 -0.08386,0.09 -0.184516,0.15499 -0.301873,0.20099 -0.113168,0.04 -0.23241,0.06 -0.358153,0.06 -0.1341268,0 -0.2577758,-0.02 -0.3709438,-0.06 -0.108981,-0.04 -0.20525,-0.1 -0.289082,-0.17 -0.0796,-0.08 -0.14464,-0.16099 -0.194937,-0.25699 -0.04614,-0.101 -0.07345,-0.20799 -0.08186,-0.32099 h -0.53416 c 0.004,0.201 0.04377,0.38199 0.119214,0.54099 0.07545,0.15899 0.178071,0.29299 0.308012,0.40198 0.12993,0.105 0.279016,0.186 0.446668,0.245 0.171852,0.05 0.354149,0.08 0.546951,0.08 0.2598728,0 0.4861568,-0.04 0.6789568,-0.11899 0.197,-0.08 0.360228,-0.195 0.490159,-0.33399 0.12993,-0.138 0.226721,-0.29499 0.289593,-0.47099 0.06703,-0.17999 0.100282,-0.36499 0.100282,-0.55398 4e-5,-0.256 -0.03762,-0.47699 -0.113071,-0.66598 -0.07545,-0.193 -0.178081,-0.35199 -0.308012,-0.47799 -0.129941,-0.13 -0.282908,-0.22599 -0.458948,-0.28899 -0.176039,-0.06 -0.362743,-0.09 -0.559742,-0.09 -0.1508918,0 -0.3038698,0.03 -0.4589478,0.08 -0.150891,0.05 -0.27455,0.13 -0.370946,0.23899 l -0.01228,-0.01 0.23894,-1.28266 h 1.7979288 l -2e-6,-0.47199 z m 83.3745258,0 -0.41496,2.31364 0.45896,0.02 c 0.10478,-0.126 0.22454,-0.226 0.35867,-0.301 0.1383,-0.08 0.29518,-0.11999 0.47122,-0.11999 0.15089,10e-5 0.28726,0.03 0.4088,0.08 0.12576,0.05 0.2328,0.12099 0.32081,0.21299 0.088,0.09 0.15499,0.19499 0.20109,0.32099 0.0503,0.122 0.0752,0.25499 0.0751,0.40199 -3.3e-4,0.17599 -0.0249,0.33199 -0.0752,0.46598 -0.0503,0.13 -0.11972,0.239 -0.20774,0.327 -0.0839,0.09 -0.184,0.15499 -0.30135,0.20099 -0.11317,0.04 -0.23292,0.06 -0.35867,0.06 -0.13412,0 -0.25777,-0.02 -0.37095,-0.06 -0.10897,-0.04 -0.20524,-0.1 -0.28907,-0.17 -0.0796,-0.08 -0.14464,-0.16099 -0.19494,-0.25699 -0.0461,-0.101 -0.0735,-0.20799 -0.0819,-0.32099 h -0.53415 c 0.004,0.201 0.0438,0.38199 0.1192,0.54099 0.0754,0.15899 0.17809,0.29299 0.30802,0.40198 0.12993,0.105 0.27901,0.186 0.44668,0.245 0.17184,0.05 0.35412,0.08 0.54695,0.08 0.25986,0 0.48614,-0.04 0.67895,-0.11899 0.19701,-0.08 0.36023,-0.195 0.49015,-0.33299 0.12995,-0.138 0.22673,-0.29499 0.28961,-0.47099 0.067,-0.17999 0.10028,-0.36499 0.10027,-0.55398 2.3e-4,-0.256 -0.0376,-0.47699 -0.11302,-0.66598 -0.0755,-0.193 -0.17808,-0.35199 -0.30801,-0.47799 -0.12993,-0.13 -0.28291,-0.22599 -0.45895,-0.28899 -0.17603,-0.06 -0.36275,-0.09 -0.55974,-0.09 -0.1509,0 -0.30388,0.03 -0.45895,0.08 -0.15089,0.05 -0.27454,0.13 -0.37095,0.23899 l -0.0123,-0.01 0.23894,-1.28266 h 1.79793 l 3e-5,-0.47199 z m -92.46189927,0.63199 -0.013307,0.49498 0.99003847,0.03 0.01279,-0.49499 z m 99.95241927,0 -0.98953,0.03 0.0128,0.49499 0.99004,-0.03 z m -92.9960578,0.05 h 0.01228 l 10e-7,2.18154 H 5.4961202 Z M -8.681533e-7,49.752696 v 0.49498 H 0.51471723 h 0.47532 2.47535197 l -1e-6,-0.49498 h -2.47535197 -0.47532 z m 96.53461586815329,0 -2e-5,0.49498 h 2.47483 0.48914 0.50141 l 2e-5,-0.49498 h -0.50141 -0.48914 z m -95.5343438,1.28266 -0.99003837,0.03 0.013307,0.49498 0.98952637,-0.03 z m 97.9989438,0 -0.0128,0.49499 0.98952,0.03 0.0133,-0.49498 z m -97.9549428,1.28266 -0.98901467,0.05 0.026099,0.49399 0.98850367,-0.05 z m 97.9109428,0 -0.0255,0.49399 0.9885,0.05 0.026,-0.49399 z m -97.8336838,1.28067 -0.98696877,0.08 0.038881,0.49299 0.98696877,-0.08 z m 97.7564138,0 -0.0389,0.49298 0.98697,0.08 0.0389,-0.49299 z m -96.6609758,1.17466 -0.98441,0.103 -0.35047897,0.04 -0.6344436,0.07 0.052188,0.49298 0.6211406,-0.07 0.36326997,-0.04 0.984922,-0.10299 z m 95.5655458,0 -0.0517,0.49199 0.98441,0.10299 0.48658,0.05 0.49833,0.05 0.0517,-0.49198 -0.49834,-0.05 -0.48659,-0.05 z m -96.4056718,1.37836 -0.98134027,0.129 0.064465,0.49098 0.98134027,-0.12899 z m 97.2458018,0 -0.0645,0.49099 0.98135,0.12899 0.0649,-0.49098 z m -97.0682598,1.27036 -0.97775797,0.155 0.07726,0.48899 0.97826997,-0.155 z m 96.8907098,0 -0.0778,0.48899 0.97827,0.155 0.0772,-0.48899 z m -96.6793998,1.26577 -0.97366497,0.18099 0.09005,0.48699 0.97366597,-0.181 z m 96.4685998,0 -0.0906,0.48698 0.97366,0.181 0.09,-0.48699 z m -95.2565068,1.05347 -0.968548,0.20599 -0.357642,0.08 -0.610395,0.13 0.102841,0.48498 0.623187,-0.13199 0.345361,-0.07 0.968038,-0.206 z m 94.0439168,0 -0.10285,0.48498 0.96856,0.206 0.47787,0.10199 0.49016,0.104 0.10336,-0.48498 -0.49068,-0.104 -0.47788,-0.101 z m -94.7356638,1.45866 -0.962409,0.23099 0.115633,0.48098 0.962408,-0.23099 z m 95.4274038,0 -0.11563,0.48098 0.96292,0.23099 0.11512,-0.48098 z m -95.1178578,1.24536 -0.956269,0.25599 0.128424,0.47799 0.95627,-0.25599 z m 94.8083178,0 -0.12843,0.47799 0.95627,0.25599 0.12842,-0.47799 z m -94.4660248,1.23656 -0.949106,0.281 0.140192,0.47398 0.949617,-0.28099 z m 94.1237348,0 -0.14071,0.47499 0.94962,0.28099 0.1407,-0.47398 z m -92.8077768,0.92198 -0.941944,0.30599 -0.451784,0.14699 -0.489647,0.159 0.152983,0.47099 0.489646,-0.159 0.451785,-0.147 0.941943,-0.30599 z m 91.4918168,0 -0.15298,0.47098 0.94193,0.30599 0.46457,0.151 0.47686,0.155 0.15299,-0.47099 -0.47686,-0.155 -0.46457,-0.15099 z m -92.0269998,1.52255 -0.933758,0.33099 0.165262,0.46699 0.933247,-0.32999 z m 92.5626898,0 -0.16526,0.46699 0.93324,0.32999 0.16527,-0.46699 z m -92.1247198,1.20597 -0.924547,0.35499 0.177542,0.46198 0.924035,-0.35499 z m 91.6867498,0 -0.17754,0.46298 0.92404,0.35499 0.17754,-0.46198 z m -82.941157,1.19366 -2.031241,2.89832 -5e-6,0.51598 h 1.955517 l -3e-6,1.04367 h 0.502949 l 4e-6,-1.04367 h 0.603743 l -2e-6,-0.47198 h -0.603744 l 5e-6,-2.94232 z m 3.03663,0 c -0.230524,0 -0.429953,0.03 -0.597605,0.101 -0.163465,0.07 -0.299315,0.157 -0.408295,0.26999 -0.10898,0.113 -0.194999,0.24599 -0.257871,0.39599 -0.06287,0.151 -0.111271,0.30999 -0.144796,0.47699 -0.03356,0.16799 -0.05451,0.33999 -0.06293,0.51598 -0.0079,0.176 -0.01229,0.34599 -0.01229,0.50899 2.2e-5,0.16299 0.004,0.33399 0.01226,0.50998 0.0079,0.176 0.02937,0.34799 0.06293,0.51499 0.03356,0.16799 0.08188,0.32699 0.144797,0.47798 0.06287,0.147 0.14889,0.277 0.25787,0.38999 0.108981,0.113 0.24483,0.203 0.408294,0.26999 0.167655,0.06 0.367082,0.09 0.597606,0.09 0.234722,0 0.433629,-0.03 0.597093,-0.09 0.163464,-0.07 0.299826,-0.15699 0.408806,-0.26999 0.10898,-0.11299 0.194488,-0.24299 0.257358,-0.38999 0.06287,-0.15099 0.111262,-0.30999 0.144797,-0.47798 0.03356,-0.168 0.05452,-0.33899 0.06293,-0.51499 0.0079,-0.17599 0.01279,-0.34599 0.01279,-0.50998 -2.1e-5,-0.164 -0.004,-0.33299 -0.01279,-0.50899 -0.0079,-0.17599 -0.02937,-0.34799 -0.06293,-0.51598 -0.03356,-0.168 -0.08187,-0.32699 -0.144796,-0.47699 -0.06287,-0.151 -0.148379,-0.28299 -0.257359,-0.39599 -0.108979,-0.11299 -0.247283,-0.20299 -0.414947,-0.26999 -0.163464,-0.07 -0.360427,-0.101 -0.590952,-0.101 z m 68.172445,0 c -0.234722,0 -0.444389,0.04 -0.628815,0.12 -0.184415,0.08 -0.339346,0.19099 -0.465088,0.33299 -0.121543,0.138 -0.211978,0.30399 -0.270661,0.49699 -0.05871,0.19299 -0.08165,0.40198 -0.06907,0.62898 h 0.534671 c -0.004,-0.134 0.0079,-0.266 0.03735,-0.39599 0.03357,-0.134 0.08633,-0.25399 0.157587,-0.35899 0.0713,-0.105 0.16117,-0.188 0.270151,-0.25099 0.113166,-0.07 0.247066,-0.101 0.402154,-0.101 0.117356,0 0.228803,0.02 0.333594,0.06 0.104782,0.04 0.194706,0.09 0.27015,0.16299 0.0796,0.07 0.1427,0.157 0.188798,0.258 0.04615,0.1 0.06907,0.20499 0.06908,0.32699 0,0.15499 -0.02542,0.29099 -0.07572,0.40898 -0.04614,0.117 -0.116962,0.226 -0.213357,0.32699 -0.09218,0.101 -0.21001,0.201 -0.352526,0.301 -0.142504,0.1 -0.307684,0.20299 -0.496298,0.32099 -0.155078,0.09 -0.304163,0.19099 -0.446668,0.29599 -0.142514,0.10499 -0.270057,0.22599 -0.383224,0.36399 -0.113168,0.13799 -0.207496,0.30199 -0.282941,0.49098 -0.07129,0.185 -0.117706,0.40899 -0.138657,0.67298 h 2.911275 l -2e-6,-0.47198 h -2.2886 c 0.02515,-0.138 0.07743,-0.26 0.157076,-0.36499 0.08386,-0.109 0.182565,-0.21 0.295732,-0.30199 0.117356,-0.09 0.244908,-0.178 0.383225,-0.257 l 0.414946,-0.25199 c 0.138317,-0.09 0.272738,-0.17999 0.402666,-0.27699 0.129941,-0.1 0.24528,-0.20299 0.345874,-0.31999 0.100594,-0.122 0.179745,-0.25799 0.238428,-0.40899 0.06287,-0.151 0.09465,-0.32499 0.09465,-0.52198 -4e-5,-0.21 -0.0376,-0.39399 -0.113071,-0.55299 -0.07129,-0.15899 -0.16999,-0.29099 -0.295732,-0.39599 -0.125743,-0.10899 -0.274317,-0.19099 -0.446158,-0.24599 -0.167662,-0.06 -0.348009,-0.09 -0.540811,-0.09 z m 3.533441,0 c -0.230525,0 -0.42995,0.03 -0.597604,0.101 -0.163467,0.07 -0.299317,0.157 -0.408298,0.26999 -0.108978,0.113 -0.194999,0.24599 -0.257869,0.39599 -0.06287,0.151 -0.111272,0.30999 -0.144797,0.47699 -0.03356,0.16799 -0.05452,0.33999 -0.06294,0.51598 -0.0079,0.176 -0.01229,0.34599 -0.01229,0.50899 2.2e-5,0.16299 0.004,0.33399 0.01226,0.50998 0.0079,0.176 0.02937,0.34799 0.06293,0.51499 0.03356,0.16799 0.08188,0.32699 0.144796,0.47798 0.06287,0.147 0.148891,0.277 0.25787,0.38999 0.108981,0.113 0.244829,0.203 0.408297,0.26999 0.167653,0.06 0.367079,0.09 0.597603,0.09 0.234723,0 0.433624,-0.03 0.597089,-0.09 0.163466,-0.07 0.299832,-0.15699 0.408812,-0.26999 0.10897,-0.11299 0.195,-0.24299 0.257871,-0.38999 0.06287,-0.15099 0.110763,-0.30999 0.144277,-0.47798 0.03356,-0.168 0.05455,-0.33899 0.06297,-0.51499 0.0079,-0.17599 0.01277,-0.34599 0.01277,-0.50998 -3e-5,-0.163 -0.004,-0.33299 -0.01277,-0.50899 -0.0079,-0.17599 -0.02941,-0.34799 -0.06297,-0.51598 -0.03356,-0.168 -0.08139,-0.32699 -0.144287,-0.47699 -0.06287,-0.151 -0.148901,-0.28299 -0.257871,-0.39599 -0.10898,-0.11299 -0.247277,-0.20299 -0.41494,-0.26999 -0.163466,-0.07 -0.360436,-0.101 -0.59096,-0.101 z m -83.0189278,5e-4 -0.914826,0.37899 0.189821,0.45699 0.914314,-0.37899 z m 90.7478788,0 -0.18931,0.45699 0.91482,0.37899 0.18931,-0.45699 z m -79.434837,0.47099 h 5.11e-4 c 0.150641,1e-4 0.278053,0.03 0.382712,0.09 0.104783,0.06 0.190801,0.13599 0.257871,0.23299 0.07129,0.09 0.123551,0.20099 0.157076,0.32699 0.03772,0.126 0.06513,0.25599 0.08187,0.38999 0.02099,0.13 0.03121,0.26199 0.03121,0.39599 0.004,0.12999 0.0071,0.24899 0.0072,0.35799 3.2e-5,0.16799 -0.0059,0.35599 -0.01892,0.56598 -0.0079,0.20499 -0.04208,0.39999 -0.100795,0.58498 -0.05446,0.18 -0.144407,0.33299 -0.27015,0.45899 -0.125742,0.126 -0.301683,0.18799 -0.52802,0.18799 -0.226337,0 -0.40279,-0.06 -0.528533,-0.18799 -0.125741,-0.126 -0.217606,-0.27899 -0.276289,-0.45899 -0.05446,-0.18399 -0.08822,-0.37899 -0.100799,-0.58498 -0.0079,-0.20999 -0.01231,-0.39799 -0.01224,-0.56598 l 3e-5,-0.35799 c 0.004,-0.134 0.01448,-0.26599 0.03121,-0.39599 0.02099,-0.134 0.0483,-0.26399 0.08186,-0.38999 0.03772,-0.126 0.09,-0.23499 0.157076,-0.32699 0.07129,-0.1 0.159218,-0.174 0.26401,-0.23299 0.104649,-0.06 0.232583,-0.09 0.383224,-0.09 z m 71.705886,0 h 5.05e-4 c 0.150643,1e-4 0.278059,0.03 0.382713,0.09 0.104782,0.06 0.190802,0.13599 0.257871,0.23299 0.07129,0.09 0.123554,0.20099 0.157079,0.32699 0.03772,0.126 0.06515,0.25599 0.08188,0.38999 0.02099,0.13 0.03119,0.26199 0.03119,0.39599 0.004,0.12999 0.0069,0.24899 0.0069,0.35799 3e-5,0.16799 -0.0059,0.35599 -0.01891,0.56598 -0.0079,0.20499 -0.04208,0.39999 -0.100792,0.58498 -0.05446,0.18 -0.144406,0.33299 -0.270148,0.45899 -0.125743,0.126 -0.301683,0.18799 -0.52802,0.18799 -0.226337,0 -0.402277,-0.06 -0.52802,-0.18799 -0.125742,-0.126 -0.218122,-0.27899 -0.276803,-0.45899 -0.05447,-0.18399 -0.08822,-0.37899 -0.100799,-0.58498 -0.0079,-0.20999 -0.01231,-0.39799 -0.01225,-0.56598 l 3.1e-5,-0.35799 c 0.004,-0.134 0.01448,-0.26599 0.03121,-0.39599 0.02099,-0.134 0.0483,-0.26399 0.08186,-0.38999 0.03772,-0.126 0.09001,-0.23499 0.157071,-0.32699 0.07129,-0.1 0.159228,-0.174 0.26402,-0.23299 0.104643,-0.06 0.232574,-0.09 0.383218,-0.09 z m -74.831031,0.28899 h 0.01278 v 2.18154 h -1.496058 z m -6.7829118,0.02 -0.904593,0.40299 -0.321826,0.14299 -0.582769,0.259 0.20159,0.45198 0.570487,-0.25399 0.334106,-0.14899 0.904594,-0.40299 z m 87.9379038,0 -0.20108,0.45199 0.90409,0.40299 0.44667,0.19899 0.45792,0.20399 0.20159,-0.45198 -0.45792,-0.204 -0.44668,-0.19899 z m -88.3108958,1.57065 -0.893848,0.42599 0.213357,0.44699 0.893336,-0.42599 z m 88.6843958,0 -0.21334,0.44699 0.89384,0.42599 0.21284,-0.44699 z m -88.1231178,1.15327 -0.882081,0.44999 0.224613,0.44099 0.882593,-0.44899 z m 87.5613378,0 -0.22513,0.44199 0.88259,0.44899 0.22461,-0.44099 z m -84.2044168,1.02377 -1.286284,0.74198 -0.857521,0.49499 -0.316709,0.18299 -0.540812,0.31199 0.247637,0.42899 0.552068,-0.31899 0.305454,-0.176 2.143292,-1.23756 z m 80.8474888,0 -0.247118,0.42899 2.143286,1.23706 1e-5,5e-4 0.42364,0.244 0.43386,0.25099 0.24765,-0.42899 -0.43387,-0.24999 v -5e-4 z m -83.6124338,0.115 -0.870313,0.47198 0.236382,0.43499 0.8698,-0.47198 z m 86.3773818,0 -0.23587,0.43499 0.8698,0.47198 0.23638,-0.43499 z m -85.1059378,2.22813 -0.844218,0.51699 0.258894,0.42199 0.844218,-0.51699 z m 83.8344878,0 -0.25888,0.42199 0.8442,0.51699 0.2589,-0.42199 z m -83.1550188,1.08877 -0.830404,0.53899 0.269638,0.41498 0.830404,-0.53898 z m 82.4755588,0 -0.26964,0.41499 0.8304,0.53898 0.26964,-0.41498 z m -81.7684628,1.07037 -0.815565,0.56098 0.280382,0.40799 0.815566,-0.56098 z m 81.0613628,0 -0.280383,0.40799 0.816083,0.56098 0.28038,-0.40799 z m -79.524884,0.46999 -0.801241,0.58198 -0.3228498,0.23499 -0.0614,0.04 -0.416481,0.30299 0.291127,0.39999 0.4159698,-0.30199 0.384759,-0.27899 0.80124,-0.58198 z m 77.98841,0 -0.290623,0.39999 0.800735,0.58198 0.395504,0.28699 0.405732,0.29499 0.290616,-0.39999 -0.40522,-0.29499 -0.395504,-0.28799 z m -78.026784,1.61365 -0.78589,0.60298 0.30136,0.39299 0.785891,-0.60298 z m 78.065666,0 -0.301357,0.39299 0.785379,0.60298 0.301355,-0.39299 z m -77.276706,1.01147 -0.769517,0.62298 0.311593,0.38499 0.769517,-0.62298 z m 76.487231,0 -0.311594,0.38499 0.769524,0.62298 0.311594,-0.38499 z m -75.671663,0.99097 -0.753146,0.64298 0.321826,0.37699 0.752633,-0.64298 z m 74.856098,0 -0.321316,0.37699 0.752633,0.64298 0.321832,-0.37699 z m -73.279201,0.30699 -0.735748,0.66198 -0.261965,0.236 -0.473786,0.42699 0.331036,0.36798 0.464065,-0.41798 0.271684,-0.245 0.73575,-0.66298 z m 71.702303,0 -0.331035,0.36799 0.735749,0.66298 0.362758,0.32699 0.372991,0.33599 0.331039,-0.36798 -0.372485,-0.336 -0.363267,-0.32699 z m -71.571833,1.60906 -0.718353,0.68198 0.340757,0.35899 0.718354,-0.68198 z m 71.441363,0 -0.340757,0.35899 0.718353,0.68198 0.340757,-0.35899 z m -57.825907,0.52098 c -0.222138,-10e-5 -0.419102,0.04 -0.590953,0.107 -0.167654,0.07 -0.307919,0.16999 -0.421087,0.29499 -0.113167,0.126 -0.20165,0.27699 -0.264521,0.45299 -0.05871,0.17599 -0.09188,0.37099 -0.100283,0.58498 h 0.53416 c -3.5e-5,-0.13 0.01709,-0.25399 0.05065,-0.37099 0.03356,-0.117 0.08386,-0.21999 0.150936,-0.30799 0.07129,-0.09 0.159219,-0.157 0.264012,-0.20799 0.108969,-0.05 0.234579,-0.08 0.377084,-0.08 0.226336,0 0.414991,0.06 0.565882,0.18299 0.150891,0.117 0.226148,0.29499 0.226148,0.53399 2e-6,0.11699 -0.02294,0.22199 -0.06908,0.31499 -0.04614,0.09 -0.109155,0.16899 -0.188798,0.23199 -0.07545,0.06 -0.165358,0.105 -0.27015,0.139 -0.100594,0.03 -0.207636,0.04 -0.320804,0.04 H 27.72464 27.66171 c -0.01672,0 -0.03539,-0.002 -0.05628,-0.007 l 2e-6,0.45298 c 0.100593,-0.01 0.207123,-0.02 0.320291,-0.02 0.134127,-1e-4 0.257776,0.02 0.370945,0.06 0.117355,0.03 0.21804,0.09 0.301871,0.163 0.08386,0.07 0.15078,0.16199 0.201078,0.27099 0.0503,0.105 0.07572,0.22599 0.07572,0.36399 4.6e-5,0.134 -0.02732,0.25599 -0.08186,0.36499 -0.0503,0.105 -0.119197,0.19499 -0.207217,0.26999 -0.08802,0.07 -0.191167,0.128 -0.308524,0.17 -0.117356,0.04 -0.241004,0.06 -0.370944,0.06 -0.305971,0 -0.538099,-0.09 -0.697376,-0.27099 -0.159267,-0.18399 -0.243354,-0.42099 -0.251731,-0.70998 h -0.534159 c -0.004,0.23 0.02711,0.43599 0.09414,0.61598 0.07129,0.18 0.171941,0.33299 0.301871,0.45899 0.129931,0.122 0.286803,0.21399 0.471228,0.27699 0.184425,0.06 0.389688,0.09 0.616024,0.09 0.209572,0 0.40705,-0.03 0.591464,-0.08 0.188614,-0.06 0.351843,-0.14399 0.490159,-0.25699 0.138316,-0.113 0.247299,-0.25399 0.326943,-0.42199 0.08386,-0.17199 0.125865,-0.36899 0.125865,-0.59098 8e-6,-0.26799 -0.06693,-0.50099 -0.201078,-0.69798 -0.12993,-0.19699 -0.3313,-0.32399 -0.603744,-0.38299 l 1e-6,-0.01 c 0.176038,-0.08 0.32265,-0.19699 0.440016,-0.35199 0.117357,-0.15499 0.176007,-0.33299 0.176007,-0.53498 -3e-5,-0.205 -0.03564,-0.38299 -0.106931,-0.53399 -0.06703,-0.15099 -0.161388,-0.27499 -0.282941,-0.37099 -0.121554,-0.1 -0.266214,-0.16799 -0.433876,-0.21399 -0.163465,-0.05 -0.341349,-0.08 -0.534161,-0.08 z m 41.74431,0 c -0.234722,0 -0.444401,0.04 -0.628815,0.119 -0.184426,0.08 -0.339345,0.18999 -0.465088,0.33299 -0.121554,0.13799 -0.211476,0.30399 -0.270149,0.49698 -0.05871,0.193 -0.08216,0.40199 -0.06958,0.62899 h 0.534672 c -0.004,-0.134 0.0088,-0.266 0.03786,-0.39599 0.03356,-0.134 0.08585,-0.254 0.157076,-0.35899 0.07129,-0.105 0.161179,-0.188 0.27015,-0.25099 0.113168,-0.07 0.247579,-0.101 0.402667,-0.101 0.117355,0 0.2283,0.02 0.333083,0.06 0.104781,0.04 0.194704,0.09 0.270149,0.16299 0.0796,0.07 0.142689,0.157 0.188797,0.25799 0.04615,0.1 0.06907,0.205 0.06908,0.32699 0,0.155 -0.02491,0.291 -0.07522,0.40899 -0.04614,0.117 -0.117463,0.226 -0.213869,0.32699 -0.09218,0.101 -0.209509,0.201 -0.352013,0.30199 -0.142514,0.1 -0.308196,0.203 -0.496809,0.32 -0.15509,0.09 -0.304156,0.19099 -0.446669,0.29599 -0.142505,0.10499 -0.270057,0.22599 -0.383225,0.36499 -0.113167,0.13799 -0.207495,0.30099 -0.28294,0.48998 -0.07129,0.185 -0.117185,0.40899 -0.138145,0.67298 h 2.910763 l -2e-6,-0.47198 h -2.2886 c 0.02515,-0.138 0.07744,-0.26 0.157076,-0.36399 0.08386,-0.109 0.182565,-0.21 0.295732,-0.30199 0.117356,-0.09 0.244909,-0.178 0.383225,-0.258 l 0.414945,-0.25199 c 0.138317,-0.09 0.272728,-0.17999 0.402667,-0.27599 0.129931,-0.1 0.24528,-0.204 0.345874,-0.32099 0.100593,-0.122 0.180258,-0.258 0.23894,-0.40899 0.06287,-0.151 0.09414,-0.32499 0.09414,-0.52199 -3.9e-5,-0.20999 -0.03762,-0.39398 -0.113071,-0.55298 -0.07129,-0.15899 -0.169989,-0.29099 -0.295731,-0.39599 -0.125743,-0.10899 -0.274306,-0.19099 -0.446158,-0.24499 -0.167652,-0.06 -0.348009,-0.09 -0.540811,-0.09 z m -39.153838,0.08 -0.414945,2.31363 0.458948,0.02 c 0.104781,-0.12599 0.224025,-0.22599 0.358152,-0.30199 0.138317,-0.08 0.2957,-0.119 0.47174,-0.119 0.150891,0 0.28674,0.02 0.408295,0.08 0.125741,0.05 0.232783,0.122 0.320803,0.214 0.08802,0.09 0.154969,0.19499 0.201077,0.32099 0.0503,0.12199 0.07572,0.25499 0.07572,0.40198 -4.5e-5,0.176 -0.02544,0.33199 -0.07573,0.46599 -0.0503,0.13 -0.119197,0.23899 -0.207217,0.32699 -0.08386,0.09 -0.184516,0.155 -0.301872,0.201 -0.113168,0.04 -0.232924,0.06 -0.358665,0.06 -0.134127,0 -0.257776,-0.02 -0.370945,-0.06 -0.10897,-0.04 -0.205249,-0.1 -0.289081,-0.17 -0.0796,-0.08 -0.144641,-0.16099 -0.194938,-0.25699 -0.04613,-0.101 -0.07293,-0.208 -0.08136,-0.32099 h -0.534673 c 0.004,0.20099 0.04426,0.38199 0.119726,0.54098 0.07545,0.159 0.178072,0.29299 0.308012,0.40199 0.129931,0.105 0.278503,0.18599 0.446157,0.24499 0.17185,0.05 0.354139,0.08 0.546951,0.08 0.259861,1e-4 0.486155,-0.04 0.678956,-0.119 0.197,-0.08 0.36074,-0.19499 0.49067,-0.33399 0.129931,-0.13799 0.22621,-0.29499 0.289082,-0.47098 0.06703,-0.18 0.100794,-0.36499 0.100795,-0.55399 3.9e-5,-0.25599 -0.03812,-0.47698 -0.113587,-0.66598 -0.07545,-0.19299 -0.178082,-0.35199 -0.308011,-0.47798 -0.129931,-0.13 -0.282909,-0.226 -0.458949,-0.289 -0.176039,-0.06 -0.362241,-0.09 -0.55923,-0.09 -0.150891,0 -0.303869,0.03 -0.458948,0.08 -0.150892,0.05 -0.274549,0.12999 -0.370946,0.23899 l -0.01279,-0.01 0.23894,-1.28266 h 1.79793 l -2e-6,-0.47199 z m 41.693656,0 -0.414946,2.31363 0.458948,0.02 c 0.104783,-0.12599 0.224536,-0.22599 0.358666,-0.30099 0.138315,-0.08 0.295188,-0.12 0.471227,-0.12 0.150889,0 0.287252,0.02 0.408806,0.08 0.125743,0.05 0.232785,0.122 0.320803,0.214 0.08802,0.09 0.154969,0.19499 0.201079,0.32099 0.0503,0.12199 0.07521,0.25499 0.07521,0.40198 -4.6e-5,0.176 -0.02492,0.33199 -0.07522,0.46599 -0.0503,0.13 -0.119198,0.23899 -0.207217,0.32699 -0.08386,0.09 -0.184507,0.155 -0.301872,0.201 -0.113168,0.04 -0.232924,0.06 -0.358666,0.06 -0.134117,0 -0.257775,-0.02 -0.370944,-0.06 -0.10898,-0.04 -0.205259,-0.1 -0.289082,-0.17 -0.0796,-0.08 -0.144639,-0.16099 -0.194936,-0.25699 -0.04614,-0.101 -0.07345,-0.208 -0.08186,-0.32099 H 71.64448 c 0.004,0.20099 0.04377,0.38199 0.119215,0.54098 0.07545,0.159 0.178081,0.29299 0.308012,0.40199 0.129939,0.105 0.279015,0.18599 0.446668,0.24499 0.171851,0.05 0.35415,0.08 0.546951,0.08 0.259871,0 0.486145,-0.04 0.678958,-0.119 0.19699,-0.08 0.360739,-0.19499 0.49067,-0.33399 0.129939,-0.13799 0.226209,-0.29499 0.28908,-0.47098 0.06703,-0.18 0.100283,-0.36499 0.100283,-0.55399 4e-5,-0.25599 -0.03762,-0.47698 -0.11307,-0.66598 -0.07545,-0.19299 -0.178073,-0.35199 -0.308012,-0.47798 -0.129931,-0.13 -0.282909,-0.226 -0.458948,-0.289 -0.176039,-0.06 -0.362753,-0.09 -0.559743,-0.09 -0.150891,0 -0.303868,0.03 -0.458948,0.08 -0.15089,0.05 -0.274538,0.12999 -0.370945,0.23899 l -0.01228,-0.01 0.23894,-1.28266 h 1.797929 l -2e-6,-0.47199 z m -57.009317,0.32699 -0.699934,0.69998 0.349967,0.34999 0.700445,-0.69998 z m 69.66083,0 -0.349968,0.34999 0.699934,0.70098 0.349967,-0.35099 z m -68.746004,0.89997 -0.681514,0.71798 0.359176,0.34099 0.681515,-0.71798 z m 67.831177,0 -0.359177,0.34099 0.682028,0.71798 0.358664,-0.34099 z m -66.231254,0.14 -0.662073,0.73598 -0.244567,0.27199 -0.418016,0.46399 0.367874,0.33199 0.426714,-0.47399 0.23587,-0.26199 0.662584,-0.73598 z m 64.631332,0 -0.367875,0.33199 0.662072,0.73598 0.327454,0.36299 0.33513,0.37299 0.367875,-0.33199 -0.335129,-0.37299 -0.326944,-0.36299 z m -64.333042,1.58655 -0.643141,0.75298 0.376573,0.32099 0.642629,-0.75298 z m 64.035263,0 -0.376572,0.32199 0.64314,0.75298 0.376062,-0.32099 z m -63.052899,0.82598 -0.623187,0.76898 0.384758,0.31199 0.623188,-0.76998 z m 62.070536,0 -0.384759,0.31099 0.622674,0.76998 0.384759,-0.31199 z m -59.461133,0.77098 -0.581744,0.80097 -0.27936,0.38399 -0.302895,0.41599 0.40062,0.29099 0.302384,-0.41699 a 49.504933,49.503372 0 0 0 5.12e-4,0 l 0.861103,-1.18546 z m 56.851218,0 -0.400621,0.29099 0.582256,0.80098 0.287034,0.39498 0.294709,0.40599 0.40062,-0.29099 -0.295221,-0.40599 -0.151446,-0.20899 -0.135587,-0.186 z m -58.45728,0.03 -0.602721,0.78497 0.392945,0.301 0.60272,-0.78498 z m 60.063342,0 -0.392435,0.30099 0.602722,0.78498 0.392435,-0.301 z m -53.513228,1.44485 -0.742402,1.28627 -0.495275,0.85797 -0.495274,0.85698 0.42876,0.24699 0.312617,-0.54098 0.08135,-0.141 0.101307,-0.17499 1.237676,-2.14374 z m 46.963114,0 -0.428761,0.248 1.238188,2.14374 h -5.11e-4 l 0.244567,0.42298 0.250707,0.43399 0.428761,-0.24699 -0.250707,-0.43399 -0.244568,-0.42299 z m -51.445149,0.07 -0.560766,0.81598 0.408296,0.27999 0.560765,-0.81598 z m 55.927183,0 -0.407784,0.27999 0.560767,0.81598 0.407783,-0.27999 z m -29.761522,0.186 c -0.222147,0 -0.419111,0.04 -0.590952,0.10699 -0.167664,0.07 -0.30792,0.169 -0.421087,0.295 -0.113167,0.12599 -0.201138,0.27699 -0.264009,0.45298 -0.05871,0.176 -0.09238,0.37099 -0.100796,0.58499 h 0.534161 c -3.5e-5,-0.13 0.01709,-0.254 0.05065,-0.37099 0.03356,-0.117 0.08387,-0.22 0.150936,-0.30799 0.07129,-0.09 0.159228,-0.157 0.264009,-0.208 0.108981,-0.05 0.234572,-0.08 0.377086,-0.08 0.226337,0 0.41499,0.06 0.565882,0.183 0.150891,0.11699 0.226148,0.29499 0.226149,0.53398 2e-6,0.117 -0.02294,0.222 -0.06908,0.31499 -0.04614,0.09 -0.108653,0.169 -0.188286,0.232 -0.07545,0.06 -0.165881,0.10499 -0.270663,0.13899 -0.100593,0.03 -0.207634,0.04 -0.320803,0.04 h -0.113074 l -0.06293,-10e-5 c -0.01673,0 -0.03539,-0.002 -0.05628,-0.007 l 2e-6,0.45299 c 0.100593,-0.01 0.207635,-0.02 0.320803,-0.02 0.134117,0 0.257776,0.02 0.370945,0.06 0.117355,0.03 0.217529,0.09 0.30136,0.16299 0.08386,0.07 0.151292,0.162 0.201589,0.27099 0.0503,0.105 0.07521,0.226 0.07522,0.36399 4.5e-5,0.134 -0.02732,0.256 -0.08186,0.36499 -0.0503,0.105 -0.119197,0.195 -0.207216,0.27 -0.08802,0.07 -0.190656,0.12799 -0.308013,0.16999 -0.117356,0.04 -0.241014,0.06 -0.370945,0.06 -0.305978,1e-4 -0.538611,-0.09 -0.697887,-0.27099 -0.159296,-0.185 -0.243346,-0.42099 -0.251732,-0.70998 h -0.534159 c -0.004,0.23099 0.02701,0.43599 0.09415,0.61598 0.07129,0.17999 0.171932,0.33299 0.301872,0.45899 0.129929,0.12199 0.286802,0.21399 0.471228,0.27699 0.184416,0.06 0.390199,0.09 0.616535,0.09 0.209576,4e-4 0.406529,-0.03 0.590955,-0.08 0.188612,-0.06 0.351841,-0.144 0.490158,-0.25699 0.138316,-0.113 0.247309,-0.254 0.326943,-0.42199 0.08385,-0.172 0.125865,-0.36899 0.125865,-0.59098 8e-6,-0.268 -0.06693,-0.50099 -0.201078,-0.69798 -0.12994,-0.197 -0.331309,-0.324 -0.603744,-0.38299 l -10e-7,-0.01 c 0.176041,-0.08 0.322661,-0.197 0.440018,-0.35199 0.117366,-0.155 0.176007,-0.33399 0.176007,-0.53499 -3e-5,-0.20499 -0.03563,-0.38299 -0.10693,-0.53398 -0.06703,-0.151 -0.161399,-0.27499 -0.282942,-0.37099 -0.121554,-0.1 -0.265712,-0.168 -0.433366,-0.214 -0.163464,-0.05 -0.34187,-0.08 -0.534671,-0.08 z m 3.583581,0 c -0.230534,0 -0.429439,0.03 -0.597093,0.1 -0.163465,0.07 -0.299836,0.158 -0.408806,0.271 -0.10898,0.11299 -0.194999,0.24499 -0.257871,0.39598 -0.06287,0.151 -0.11075,0.31 -0.144285,0.47799 -0.03356,0.168 -0.05451,0.33899 -0.06293,0.51499 -0.0079,0.17599 -0.01279,0.34599 -0.01279,0.50998 2e-5,0.163 0.004,0.33299 0.01279,0.50899 0.0079,0.17599 0.02937,0.34799 0.06293,0.51598 0.03357,0.168 0.08139,0.32699 0.144285,0.47799 0.06287,0.14699 0.148891,0.27599 0.257871,0.38899 0.108969,0.11299 0.245341,0.20399 0.408806,0.27099 0.167653,0.06 0.366559,0.09 0.597093,0.09 0.234706,-2e-4 0.43414,-0.03 0.597603,-0.09 0.163466,-0.07 0.299325,-0.157 0.408295,-0.27099 0.108979,-0.113 0.195,-0.243 0.25787,-0.38899 0.06287,-0.151 0.111263,-0.30999 0.144796,-0.47799 0.03357,-0.16799 0.05452,-0.33999 0.06294,-0.51598 0.0079,-0.176 0.01229,-0.34599 0.01228,-0.50899 -2.1e-5,-0.16299 -0.004,-0.33299 -0.01226,-0.50998 -0.0079,-0.176 -0.02937,-0.34799 -0.06293,-0.51499 -0.03356,-0.16799 -0.08197,-0.32699 -0.144796,-0.47799 -0.06287,-0.15099 -0.14889,-0.28299 -0.25787,-0.39598 -0.108971,-0.113 -0.247294,-0.204 -0.414947,-0.271 -0.163465,-0.07 -0.360429,-0.1 -0.590953,-0.1 z m -2e-6,0.47098 c 0.150891,0 0.278954,0.03 0.383736,0.09 0.104782,0.06 0.190801,0.136 0.25787,0.23299 0.07129,0.09 0.123552,0.201 0.157076,0.32699 0.03772,0.126 0.06513,0.256 0.08187,0.38999 0.02099,0.13 0.03122,0.262 0.03121,0.39599 0.004,0.13 0.0061,0.24899 0.0061,0.35799 3.3e-5,0.168 -0.0059,0.35599 -0.01892,0.56599 -0.0079,0.20499 -0.04158,0.39998 -0.100283,0.58498 -0.05445,0.17999 -0.144921,0.33299 -0.270661,0.45898 -0.125743,0.126 -0.301695,0.189 -0.528021,0.189 -0.226336,-1e-4 -0.402278,-0.06 -0.52802,-0.189 -0.125742,-0.12599 -0.218118,-0.27899 -0.276801,-0.45898 -0.05447,-0.184 -0.08773,-0.37899 -0.100283,-0.58498 -0.0079,-0.21 -0.0128,-0.39799 -0.01284,-0.56599 l 3.1e-5,-0.35799 c 0.004,-0.13399 0.01499,-0.26599 0.03172,-0.39599 0.02099,-0.13399 0.04778,-0.26399 0.08135,-0.38999 0.03772,-0.12599 0.09049,-0.23499 0.157588,-0.32699 0.07129,-0.1 0.159229,-0.17399 0.26401,-0.23299 0.104782,-0.06 0.232333,-0.09 0.383224,-0.09 z m -28.686037,0.06 -0.539277,0.82998 0.415457,0.26999 0.539276,-0.82998 z m 53.800774,0 -0.415457,0.26999 0.539276,0.82998 0.415458,-0.26999 z m -52.719152,0.68998 -0.517276,0.84398 0.42211,0.25799 0.517276,-0.84398 z m 51.63753,0 -0.42211,0.25799 0.517276,0.84398 0.422109,-0.25799 z m -49.421583,1.29396 -0.472763,0.86998 0.435412,0.23599 0.472251,-0.86997 z m 47.205636,0 -0.434901,0.236 0.472763,0.86997 0.434901,-0.23599 z m -46.07336,0.60299 -0.449738,0.88197 0.441552,0.22499 0.449225,-0.88197 z m 44.941084,0 -0.44104,0.22499 0.449737,0.88197 0.44104,-0.22499 z m -42.227817,0.21199 -0.403178,0.90497 -0.148378,0.33399 -0.254289,0.57099 0.452296,0.20099 0.259406,-0.58198 0.143262,-0.32199 0.402666,-0.90498 z m 39.515061,0 -0.452296,0.20099 0.402666,0.90498 0.19852,0.44599 0.204147,0.45798 0.452296,-0.20099 -0.204148,-0.45799 -0.198518,-0.44599 z m -41.080703,0.36099 -0.426202,0.89397 0.447181,0.213 0.426201,-0.89398 z m 42.645833,0 -0.44718,0.21299 0.426202,0.89398 0.44718,-0.213 z m -40.306579,1.05557 -0.379132,0.91497 0.457414,0.189 0.378619,-0.91398 z m 37.967838,0 -0.457413,0.18999 0.378619,0.91398 0.457413,-0.189 z m -34.058339,0.40899 -0.305966,0.94097 -0.146842,0.45199 -0.159123,0.48998 0.470717,0.153 0.159123,-0.48999 0.146842,-0.45198 0.305965,-0.94098 z m 30.148327,0 -0.470716,0.15299 0.305965,0.94098 0.150937,0.46498 0.155029,0.47699 0.470716,-0.153 -0.15503,-0.47698 -0.150935,-0.46499 z m -32.868757,0.07 -0.355083,0.92397 0.462528,0.17699 0.354573,-0.92397 z m 35.589188,0 -0.462018,0.17699 0.354572,0.92397 0.46253,-0.17699 z m -34.38784,0.44998 -0.330524,0.93298 0.466622,0.16499 0.330525,-0.93297 z m 33.186491,0 -0.466623,0.165 0.330525,0.93297 0.466623,-0.16499 z m -16.345608,0.41799 -0.495275,5e-4 v 1.48526 l 5e-6,0.98997 -3e-6,0.47498 -2e-6,0.514994 h 0.495275 l -4e-6,-0.501994 -10e-7,-0.48798 10e-7,-0.99097 z m -10.473428,0.38499 -0.206194,0.96897 -0.07317,0.34499 -0.132517,0.62398 0.484019,0.103 0.129959,-0.61098 0.07624,-0.35799 0.205682,-0.96897 z m 20.451581,0 -0.48402,0.103 0.205682,0.96897 0.101822,0.47798 0.104375,0.49099 0.484019,-0.103 -0.104375,-0.49098 -0.101306,-0.47799 h -5.12e-4 z m -24.38257,0.003 -0.281405,0.94897 0.474808,0.141 0.281407,-0.94897 z m 28.31356,0 -0.474299,0.141 0.280896,0.94897 0.474808,-0.141 z m -27.080488,0.35499 -0.256336,0.95597 0.478391,0.128 0.256335,-0.95597 z m 25.847416,0 -0.477878,0.128 0.255823,0.95597 0.47839,-0.128 z m -24.605648,0.32199 -0.230753,0.96297 0.480949,0.116 0.231265,-0.96297 z m 23.363879,0 -0.48146,0.116 0.231265,0.96297 0.481459,-0.116 z m -16.947305,0.133 -0.103353,0.98497 h -5.11e-4 l -0.03786,0.36299 -0.06549,0.62098 0.492205,0.05 0.06702,-0.63398 0.02762,-0.265 0.0092,-0.09 0.103352,-0.98498 z m 10.531244,0 -0.492719,0.05 0.154518,1.47036 a 49.504933,49.503372 0 0 0 5.12e-4,0 l 0.05219,0.49899 0.492204,-0.05 -0.05219,-0.49899 -0.05116,-0.48498 z m -14.440745,0.41298 -0.180099,0.97298 0.486577,0.09 0.180611,-0.97397 z m 18.349733,0 -0.48709,0.09 0.180611,0.97397 0.486576,-0.09 z m -17.085963,0.224 -0.155029,0.97797 0.489137,0.08 0.154517,-0.97798 z m 15.822704,0 -0.489135,0.08 0.15503,0.97798 0.488623,-0.08 z m -14.553817,0.18999 -0.129447,0.98197 0.490671,0.06 0.129446,-0.98097 z m 13.284931,0 -0.491182,0.06 0.129446,0.98097 0.490671,-0.06 z m -10.734879,0.28099 -0.07777,0.98698 0.49374,0.04 0.07777,-0.98697 z m 8.184315,0 -0.493739,0.04 0.07777,0.98697 0.493741,-0.04 z m -6.904173,0.09 -0.05219,0.98897 0.494764,0.03 0.05167,-0.98797 z m 5.624031,0 -0.494251,0.03 0.05167,0.98797 0.494765,-0.03 z m -4.342355,0.06 -0.02609,0.98997 0.495274,0.01 0.02558,-0.98997 z m 3.060677,0 -0.494764,0.01 0.02609,0.98997 0.494764,-0.01 z"
     inkscape:label="detailed_watch_face_white"
     inkscape:export-filename="svg_white_face_detailed.svg"
     inkscape:export-xdpi="3017.821"
     inkscape:export-ydpi="3017.821" />
</svg>
